<?xml version="1.0" encoding="utf-8"?>
<!-- Generator: Adobe Illustrator 22.0.1, SVG Export Plug-In . SVG Version: 6.00 Build 0)  -->
<svg version="1.1" xmlns="http://www.w3.org/2000/svg" xmlns:xlink="http://www.w3.org/1999/xlink" x="0px" y="0px"
	 viewBox="0 0 100 81.3" style="enable-background:new 0 0 100 81.3;" xml:space="preserve">
<g id="Layer_2">
</g>
<g id="Layer_1">
	<g>
		<path d="M73,47.1l0.5,1.3c0.2,0.6,0.8,1,1.4,1c0.2,0,0.4,0,0.6-0.1c0.8-0.3,1.2-1.2,0.8-2L75.8,46c-0.3-0.7-0.2-1.4,0.3-1.9
			c1.2-1.4,1.5-3.4,0.8-5.1l-0.5-1.4c-0.3-0.8-1.2-1.2-2-0.8c-0.8,0.3-1.2,1.2-0.8,2l0.5,1.3c0.3,0.7,0.2,1.4-0.3,1.9
			C72.6,43.5,72.3,45.4,73,47.1z"/>
		<path d="M80.2,47.1l0.5,1.3c0.2,0.6,0.8,1,1.4,1c0.2,0,0.4,0,0.6-0.1c0.8-0.3,1.2-1.2,0.8-2L83,46c-0.3-0.7-0.2-1.4,0.3-1.9
			c1.2-1.4,1.5-3.4,0.8-5.1l-0.5-1.4c-0.3-0.8-1.2-1.2-2-0.8c-0.8,0.3-1.2,1.2-0.8,2l0.5,1.3c0.3,0.7,0.2,1.4-0.3,1.9
			C79.8,43.5,79.5,45.4,80.2,47.1z"/>
		<path d="M87.4,47.1l0.5,1.3c0.2,0.6,0.8,1,1.4,1c0.2,0,0.4,0,0.6-0.1c0.8-0.3,1.2-1.2,0.8-2L90.2,46c-0.3-0.7-0.2-1.4,0.3-1.9
			c1.2-1.4,1.5-3.4,0.8-5.1l-0.5-1.4c-0.3-0.8-1.2-1.2-2-0.8c-0.8,0.3-1.2,1.2-0.8,2l0.5,1.3c0.3,0.7,0.2,1.4-0.3,1.9
			C87,43.5,86.7,45.4,87.4,47.1z"/>
		<path d="M69,59.1c3,0,5.8,1.8,7,4.5c1.8,0.9,3.3,2.6,3.9,4.6C80,68.5,80,68.7,80,69c0.7,0.1,1.4,0.1,2.1,0.1
			c13.6,0,15.2-10.2,15.3-14.6c0-0.9-0.7-1.6-1.6-1.6H68.4c-0.9,0-1.6,0.7-1.6,1.6c0.1,1.3,0.2,3,0.7,4.9C68,59.1,68.5,59.1,69,59.1
			z"/>
		<path d="M47.5,55.3c0.9-1.9,1.7-3.5,2.1-4.4c0.1-0.3,0.5-0.4,0.8-0.3l3.1,1.7c0.5,0.3,1.1,0.1,1.3-0.4c0.8-1.8,2.4-5.9,3.4-9.4
			c1.2-4.1,1-9-0.6-11c-0.3-0.4-1-0.3-1.2,0.1c0,0-8.4,13.7-13.5,22.1H43C44.6,53.8,46.2,54.3,47.5,55.3z"/>
		<path d="M56.3,61.5c-2.4,0-4.5,1.9-4.7,4.2c-1.8,0.3-3.2,1.6-3.8,3.2H77c-0.5-1.6-1.8-2.8-3.4-3.2c-0.4-2.2-2.3-3.8-4.6-3.8
			c-1,0-1.8,0.3-2.6,0.8c-0.8-1.3-2.3-2.2-4-2.2c-1.4,0-2.7,0.6-3.6,1.6C58.1,61.8,57.3,61.5,56.3,61.5z"/>
		<path d="M47.5,61.5c0.2-2.6-1.9-4.8-4.5-4.8h-8.9c0,0-8.5-6.8-9.2-7.4c-0.8-0.6-2.1-1.2-3.6-1.2h-8.6c-3.1,0-5.6,2.5-5.6,5.6v21.6
			c0,1.2,1,2.2,2.2,2.2h15.3c1.2,0,2.2-1,2.2-2.2l-0.1-12.9l2.9,2.3c0.8,0.6,1.8,1,2.8,1h10.3C45.2,65.7,47.3,63.9,47.5,61.5z"/>
		<path d="M7.3,35.7c0,5.4,4.4,9.8,9.8,9.8s9.8-4.4,9.8-9.8c0-1-0.1-2-0.4-2.9H7.8C7.5,33.7,7.3,34.7,7.3,35.7z"/>
		<path d="M8.2,29.8h18v-9.9c3.3-0.5,5.8-3.4,5.7-6.9c-0.1-3.3-2.7-6.1-6-6.5c-1-0.1-2,0-2.9,0.3c-1.2-1.9-3.3-3.2-5.7-3.2
			s-4.5,1.3-5.7,3.2c-1.1-0.2-2.1-0.3-3.1-0.2c-3.3,0.4-5.9,3.2-6,6.5c-0.1,3.5,2.4,6.3,5.7,6.9V29.8z"/>
		<path d="M96.2,71.9H36.9c-0.7,0-1.3,0.6-1.3,1.3v3c0,0.7,0.6,1.3,1.3,1.3h59.3c0.7,0,1.3-0.6,1.3-1.3v-3
			C97.5,72.5,96.9,71.9,96.2,71.9z"/>
	</g>
</g>
</svg>
