<?xml version="1.0" encoding="utf-8"?>
<!-- Generator: Adobe Illustrator 22.0.1, SVG Export Plug-In . SVG Version: 6.00 Build 0)  -->
<svg version="1.1" id="Layer_1" xmlns="http://www.w3.org/2000/svg" xmlns:xlink="http://www.w3.org/1999/xlink" x="0px" y="0px"
	 viewBox="0 0 64 53.4" style="enable-background:new 0 0 64 53.4;" xml:space="preserve">
<title>12-Exercise</title>
<g>
	<path d="M17,24.1c-0.2,0-0.3,0-0.5-0.1l-7.7-4.3c-0.3,0.4-1,0.5-1.4,0.2c0,0-0.1-0.1-0.1-0.1l-3-3C4.1,16.6,4,16.4,4,16.1v-5
		c0-0.2,0.1-0.4,0.2-0.6l4-5C8.5,5.2,8.9,5,9.3,5.1l7,2c0.2,0.1,0.4,0.2,0.6,0.4l2,3c0.2,0.3,0.2,0.7,0.1,1l-0.6,1.1l6.1,3.4
		c0.5,0.3,0.7,0.9,0.4,1.4c0,0,0,0,0,0l-3,5.1c-0.3,0.5-0.9,0.6-1.3,0.4L18.8,22l-0.9,1.6C17.7,23.9,17.4,24.1,17,24.1z M9.9,18
		l6.7,3.7l1.3-2.2l0.1-1.5l-1.6-1.2c-0.3-0.2-0.4-0.5-0.4-0.8v-2.3l-1-0.3v0.6c0,0.6-0.4,1-1,1c-0.1,0-0.2,0-0.3-0.1l-2.1-0.7
		l-0.7,2.1c0,0.1-0.1,0.2-0.1,0.2L9.9,18z M19.8,20.3l0.9,0.5l2-3.4L18,14.8v0.8l1.6,1.2c0.3,0.2,0.4,0.5,0.4,0.9l-0.1,2.2
		C19.9,20,19.8,20.2,19.8,20.3L19.8,20.3z M6,15.7l1.8,1.8l1.2-1.9l1-2.9c0.2-0.5,0.7-0.8,1.3-0.6l1.7,0.6v-0.6c0-0.6,0.4-1,1-1
		c0.1,0,0.2,0,0.3,0.1l2.2,0.7l0.4-0.7L15.4,9l-6-1.7L6,11.5V15.7z"/>
	<path d="M35,33.1c-0.2,0-0.3,0-0.4-0.1l-3.8-1.9H29c-0.2,0-0.4-0.1-0.6-0.2l-3-2l1.1-1.7l2.7,1.8H31c0.2,0,0.3,0,0.4,0.1l3.2,1.6
		l4-6.4l-12-7.1L24.2,18L23.7,16l2.7-0.7c0.3-0.1,0.5,0,0.8,0.1l13.3,7.8c0.5,0.3,0.6,0.9,0.4,1.4c0,0,0,0,0,0l-5,8
		C35.7,32.9,35.3,33.1,35,33.1z"/>
	<path d="M41,36.1c-0.2,0-0.3,0-0.4-0.1l-6-3l0.9-1.8l5.2,2.6l3.9-6.3l-5-2.5l0.9-1.8l6,3c0.5,0.2,0.7,0.8,0.4,1.3c0,0,0,0.1,0,0.1
		l-5,8C41.7,35.9,41.3,36.1,41,36.1z"/>
	<path d="M54,43.1h-4c-0.6,0-1-0.4-1-1v-3c0-1.7,1.3-3,3-3h0.5l1.7-2.3L44.6,29l0.9-1.8l14,7c0.5,0.2,0.7,0.8,0.4,1.3
		c0,0-0.1,0.1-0.1,0.1l-5,7C54.6,42.9,54.3,43.1,54,43.1z M51,41.1h2.5l4-5.6L56,34.7l-2.2,3c-0.2,0.3-0.5,0.4-0.8,0.4h-1
		c-0.6,0-1,0.4-1,1V41.1z"/>
	<rect x="46.5" y="28.6" transform="matrix(0.4138 -0.9104 0.9104 0.4138 -3.6533 63.5242)" width="2" height="12.1"/>
	<rect x="42.5" y="33.4" transform="matrix(0.3714 -0.9285 0.9285 0.3714 -6.1726 63.0799)" width="2" height="5.4"/>
	<path d="M50,43.1h-5c-0.6,0-1-0.4-1-1v-3c0-1.7,1.3-3,3-3h5v2h-5c-0.6,0-1,0.4-1,1v2h4V43.1z"/>
	<path d="M26,31.1h-5c-0.6,0-1-0.4-1-1v-8h2v7h3v-4c0-0.6,0.4-1,1-1h3v2h-2v4C27,30.7,26.6,31.1,26,31.1z"/>
	<path d="M25,43.1h-7c-0.6,0-1-0.4-1-1v-1c0-0.3,0.1-0.5,0.3-0.7l2-2c0.2-0.2,0.4-0.3,0.7-0.3v-8h2v9c0,0.6-0.4,1-1,1h-0.6l-1,1H24
		v-11h2v12C26,42.7,25.6,43.1,25,43.1z"/>
	<path d="M18,43.1h-5c-0.6,0-1-0.4-1-1v-1c0-0.3,0.1-0.5,0.3-0.7l2-2c0.2-0.2,0.4-0.3,0.7-0.3h1v-15h2v16c0,0.6-0.4,1-1,1h-1.6l-1,1
		H18V43.1z"/>
	<rect x="17" y="27.1" width="4" height="2"/>
	<rect x="31" y="41.1" width="2" height="2"/>
	<path d="M63,47.1H1c-0.6,0-1-0.4-1-1v-4c0-0.6,0.4-1,1-1h28v2H2v2h60v-2H35v-2h28c0.6,0,1,0.4,1,1v4C64,46.7,63.6,47.1,63,47.1z"/>
	<rect x="11" y="26.1" width="2" height="7"/>
	<rect x="11" y="35.1" width="2" height="2"/>
	<rect x="7" y="22.1" width="2" height="7"/>
	<rect x="7" y="31.1" width="2" height="2"/>
</g>
</svg>
