<?xml version="1.0" encoding="utf-8"?>
<!-- Generator: Adobe Illustrator 22.0.1, SVG Export Plug-In . SVG Version: 6.00 Build 0)  -->
<svg version="1.1" id="Layer_1" xmlns="http://www.w3.org/2000/svg" xmlns:xlink="http://www.w3.org/1999/xlink" x="0px" y="0px"
	 viewBox="0 0 64 62.8" style="enable-background:new 0 0 64 62.8;" xml:space="preserve">
<g>
	<path d="M62.4,33.7l-4.8,2c-0.1,0-0.2,0.1-0.3,0.2l-6.4,5.4L50.8,41c-0.6-1.5-2.3-2.2-3.8-1.7l-0.7,0.2L45.8,39l-2.4-4.1L46.2,22
		l1.5-0.7c1.2-0.6,1.7-2.1,1.1-3.4c-0.3-0.6-0.8-1-1.4-1.2l0.6-2.7c0.1-0.5-0.3-1.1-0.8-1.2c-0.5-0.1-1,0.2-1.2,0.7l-0.7,3.4
		l-7.7,3.9l-2.9-2.5l0-0.3c0.2-1,0-2.1-0.5-3c3-0.2,5.3-2.8,5.1-5.8c0-0.5-0.1-1-0.3-1.5L42.4,6c0.5-0.2,0.7-0.8,0.5-1.3
		s-0.8-0.7-1.3-0.5l0,0L37.9,6c-2-2.3-5.4-2.6-7.7-0.6c-2.2,1.9-2.6,5.2-0.8,7.5c-0.3,0.1-0.6,0.1-0.9,0.3l0.1-0.7
		c0.2-0.9-0.4-1.7-1.3-1.9c0,0,0,0-0.1,0l-4.6-0.7c-1.4-0.2-2.7,0.7-2.9,2.1l-1.2,6.6l-1.3-0.3c-1.1-0.2-2.3,0.5-2.5,1.6
		c0,0,0,0,0,0l-1,4.9c-0.2,1.1,0.5,2.2,1.7,2.5c0,0,0.1,0,0.1,0l2.4,0.4h0l0,0l5.6,0.8l-0.1,0.2c-0.5,1.4-0.1,2.9,0.9,4
		c0,0,0.1,0.1,0.1,0.1l2.4,6.7l-4.9,7.4l-2.5,3c-0.4,0.4-0.3,1.1,0.1,1.4c0.1,0,0.1,0.1,0.2,0.1l4.8,2.5L22.6,55L1.9,57.6l0.2,2
		l20.9-2.6c0.1,0,0.3-0.1,0.4-0.1l13.4-8.1l7-2.6l0,0l7-2.6l0,0l0.7-0.3c0.1,0,0.2-0.1,0.3-0.2l6.7-5.7l4.6-1.9L62.4,33.7z
		 M46.4,41.6l1.3-0.4c0.5-0.2,1.1,0.1,1.3,0.6l0.1,0.3l-4.9,1.8L44,43.9l-0.8-2l1.6-1.1l0.5,0.5C45.6,41.6,46,41.7,46.4,41.6z
		 M27.1,31.7c-1-0.1-1.8-1-1.7-2c0-0.1,0-0.3,0.1-0.4l0.2-0.6h6.1l6.5,1.9l2.9,4.8l-0.5,2.4l-2.9-4.6c-0.2-0.3-0.4-0.4-0.8-0.5
		L27.1,31.7z M31.2,26.6h-5l0.5-2.8l0.3,0c1.7-0.2,3.3-0.6,4.9-1.3l0,0L31.2,26.6z M27,21.7l0.6-3.6c0.1,0.5,0.4,1,0.8,1.3l1.8,1.5
		C29.1,21.4,28.1,21.6,27,21.7z M42.2,44.6l-1,0.4l0.4-1.9L42.2,44.6z M43.7,39.3l-0.9,0.6l-0.5,0.3l-0.1-0.1l0.5-2.3L43.7,39.3z
		 M41.9,32.4l-2-3.3c-0.1-0.2-0.3-0.4-0.6-0.4l-6.1-1.8l0.5-2.9l1.9,1.6c0.8,0.7,1.8,0.8,2.8,0.3l5.6-2.8L41.9,32.4z M46.3,18.6
		c0.1-0.1,0.3-0.1,0.4,0c0.1,0,0.2,0.1,0.3,0.2c0.1,0.2,0,0.5-0.2,0.7l-9.3,4.7c-0.2,0.1-0.4,0.1-0.5-0.1l-4.2-3.6l0,0l-3-2.6
		c-0.2-0.2-0.2-0.5-0.1-0.7c0.1-0.1,0.2-0.2,0.3-0.2h0c0.1,0,0.2,0,0.3,0.1l6.9,6L46.3,18.6z M37.2,9.6c0,1.9-1.6,3.5-3.5,3.5
		c-1.1,0-2.1-0.5-2.8-1.4l6.1-3.1C37.2,8.9,37.2,9.3,37.2,9.6z M33.8,6.1c0.8,0,1.6,0.3,2.3,0.9l-5.8,2.9c0-0.1,0-0.2,0-0.2
		C30.3,7.7,31.8,6.1,33.8,6.1L33.8,6.1z M30.7,14.8c0.9,0.1,1.7,0.8,2,1.7l-1-0.9c-1-0.9-2.6-0.8-3.5,0.2
		C28.7,15.1,29.7,14.6,30.7,14.8z M15.8,25.2l1-4.9l-1-0.2l1.1,0.1l1.3,0.3l-0.9,5l-1.5-0.2L15.8,25.2z M21.7,12.2
		c0.1-0.3,0.3-0.5,0.6-0.4l4.2,0.6l-0.8,4.1v0l-1.6,9.9l-4.8-0.6L21.7,12.2z M29.1,39.1l-1.9-5.4l3.6,0.3l0.8,5.3l-5.8,8.5L24.3,47
		l4.6-7C29.1,39.7,29.2,39.4,29.1,39.1z M26.8,52.5L22,50l1.2-1.4l2.3,1.4c0.1,0,0.2,0.1,0.3,0.1c0.1,0,0.2,0,0.3,0h0.1
		c0.9,0,1.7,0.6,1.9,1.5l-0.3,0.2L26.8,52.5z M36,46.9c-0.1,0-0.1,0-0.2,0.1l-6.1,3.7c-0.4-1-1.2-1.7-2.1-2.1l5.7-8.4
		c0.1-0.2,0.2-0.5,0.2-0.7l-0.8-5.2l3.6,0.3l3.7,5.9l-1.2,5.4L36,46.9z"/>
</g>
</svg>
