<svg xmlns="http://www.w3.org/2000/svg" data-name="Layer 1" viewBox="0 0 256 320" x="0px" y="0px"><path d="M22.891,209.664a2,2,0,0,0,1.5.3l16.246-3.249C35.524,209.841,28,215.4,28,221c0,6.214,4.931,8.6,11.757,11.913,2.721,1.318,5.806,2.814,9.235,4.815,4.281,2.5,13.571,3.064,25.432,2.534a6.827,6.827,0,0,0,4.688,12.679l32.063-6.933c3.94.153,52.166,1.992,79.825,1.992,30.058,0,38-17.007,38-26,0-3.57-2.509-7.349-7.457-11.229a43.031,43.031,0,0,0-6.27-4.077l16.335,3.267A1.964,1.964,0,0,0,232,210a2,2,0,0,0,1.959-1.608,13.169,13.169,0,0,0-9.2-15.144l-12.241-3.536L184.532,163.5A8.025,8.025,0,0,1,182,157.665V113.813a13.854,13.854,0,0,0-7.257-12.35,12,12,0,0,0-7.322-1.356l.013-.059L142,94.4V84.948c8.211-7.827,13.709-21.573,13.709-33.654a34.255,34.255,0,0,0-10.466-25.163,11.892,11.892,0,0,0,.406-2.781,17.649,17.649,0,1,0-35.3,0,9.807,9.807,0,0,0,.447,2.744,34.245,34.245,0,0,0-10.507,25.2c0,12.081,5.5,25.827,13.709,33.654V94.4l-25.434,5.652.013.059a12,12,0,0,0-7.322,1.356A13.854,13.854,0,0,0,74,113.813v43.854a8.026,8.026,0,0,1-2.528,5.837L43,190.2l-11.682,3.186a12.965,12.965,0,0,0-9.274,15A2,2,0,0,0,22.891,209.664Zm73.245-43.278c.257-.544.482-1.1.7-1.656l1.191,7.581A2,2,0,0,0,99,173.73V189.2L53.2,201.924c.511-.372,1.012-.757,1.492-1.169l2.434-2.085,24.184-12.482a24.133,24.133,0,0,0,10.682-11.053ZM153,189H103V174h50ZM68.935,236.435C67.54,234.742,64,229.956,64,225a23.976,23.976,0,0,1,3.211-11.122l16.716-1.857,51.639,9.562a6,6,0,0,0,5.336-1.657l5.129-5.129a2.038,2.038,0,0,1,1.662-.57l14.059,1.757c.054.007.107.012.161.014l19.67.855a1.482,1.482,0,0,1,.324,2.91c-6.59,1.755-29.174,7.608-43.141,9.251-2.846.335-6.934.9-11.668,1.551C112.346,232.6,86.734,236.128,68.935,236.435ZM111.079,242a2.067,2.067,0,0,0-.5.044l-32.31,6.986a2.825,2.825,0,0,1-1.448-5.455l14.5-4.58c11.534-1.131,24.136-2.788,36.323-4.469,4.712-.649,8.782-1.211,11.589-1.541,12.018-1.414,29.677-5.714,39.706-8.309,1.566,1.259,5.31,4.687,5.31,8.7,0,4.286-2.54,8.755-3.686,10.555C151.549,243.578,111.53,242.019,111.079,242ZM225,222c0,7.609-7.106,22-34,22-1.856,0-3.807-.008-5.83-.024a23.514,23.514,0,0,0,3.08-10.6c0-4.241-2.557-7.736-4.738-9.953a5.464,5.464,0,0,0,3.109-3.122c1.866-.745,5.341-1.905,7.8-1.8l.166-4a23.609,23.609,0,0,0-8.081,1.576,5.458,5.458,0,0,0-4.745-3.221l-19.59-.852-13.977-1.747a5.966,5.966,0,0,0-4.987,1.711l-5.129,5.129a2,2,0,0,1-1.779.552l-51.931-9.617a2.049,2.049,0,0,0-.585-.021l-27,3,.442,3.976,5.236-.582c-.1.222-.2.447-.3.692A26.2,26.2,0,0,0,60,225c0,4.482,2.132,8.657,3.969,11.43-5.952-.136-10.59-.775-12.961-2.158-3.563-2.078-6.72-3.608-9.507-4.959C34.743,226.037,32,224.565,32,221c0-3.932,8.551-10,14.724-13.125L100.272,193h55.452l47.785,13.439a41.177,41.177,0,0,1,15.566,7.479C222.9,216.915,225,219.785,225,222Zm-20.464-19.427L157,189.2V173.73a2,2,0,0,0,.976-1.419l1.191-7.581c.215.558.44,1.112.7,1.656l4.013,8.471A24.087,24.087,0,0,0,175.1,186.179l25.653,12.437a24.073,24.073,0,0,0,4.828,4.245C205.229,202.766,204.887,202.661,204.536,202.573ZM172.873,105A9.866,9.866,0,0,1,178,113.813v43.852a12.04,12.04,0,0,0,3.8,8.758l28.336,26.537a1.989,1.989,0,0,0,.812.461l12.7,3.67a9.158,9.158,0,0,1,6.562,8.512l-15.158-3.032a20.192,20.192,0,0,1-11.514-6.851,2.012,2.012,0,0,0-.664-.52l-26.032-12.621a20.067,20.067,0,0,1-9.349-9.434l-4.013-8.471a19.958,19.958,0,0,1-1.842-6.745l-1.616-17.709,8.559-36.21A8.06,8.06,0,0,1,172.873,105ZM128,9.7a13.664,13.664,0,0,1,13.647,13.6,24.319,24.319,0,0,0-27.294,0A13.664,13.664,0,0,1,128,9.7Zm0,13.414c11.653,0,21.363,10.047,23.336,23.234-4.994-8.469-13.6-13.821-23.336-13.821-9.8,0-18.5,5.729-23.465,14.752C106.18,33.636,116.074,23.114,128,23.114Zm-23.115,34.8C107.435,45.5,117.1,36.527,128,36.527c11.236,0,20.742,8.479,23.236,20.655C148.993,71.731,139.033,87.3,128,87.3,117.151,87.3,107.342,72.245,104.885,57.909ZM128,91.3a18.36,18.36,0,0,0,10-3.173V105a10,10,0,0,1-20,0V88.127A18.36,18.36,0,0,0,128,91.3Zm0,27.7a14.015,14.015,0,0,0,14-14V98.493l22.587,5.019-8.533,36.1a2.009,2.009,0,0,0-.046.642l1.086,11.9L154.29,170H101.71l-2.8-17.843,1.086-11.9a2.009,2.009,0,0,0-.046-.642l-8.533-36.1L114,98.493V105A14.015,14.015,0,0,0,128,119ZM32.365,197.247l12.161-3.317a2,2,0,0,0,.842-.471l28.839-27.037A12.039,12.039,0,0,0,78,157.667V113.813A9.866,9.866,0,0,1,83.127,105a8.075,8.075,0,0,1,3.863-1c.142,0,.286,0,.43.011l8.559,36.21-1.616,17.709a19.958,19.958,0,0,1-1.842,6.745l-4.145,8.749a20.1,20.1,0,0,1-8.9,9.21l-24.391,12.59a1.992,1.992,0,0,0-.385.258l-2.61,2.237a20.16,20.16,0,0,1-9.15,4.455L25.792,205.6A8.962,8.962,0,0,1,32.365,197.247Z"/></svg>