<?xml version="1.0" encoding="utf-8"?>
<!-- Generator: Adobe Illustrator 22.0.1, SVG Export Plug-In . SVG Version: 6.00 Build 0)  -->
<svg version="1.1" id="Layer_1" xmlns="http://www.w3.org/2000/svg" xmlns:xlink="http://www.w3.org/1999/xlink" x="0px" y="0px"
	 viewBox="0 0 48 52.4" style="enable-background:new 0 0 48 52.4;" xml:space="preserve">
<title>8 plat</title>
<path d="M15.9,23.3c-0.4,0.2-0.5,0.6-0.4,1c0,0,0,0,0,0c0.6,1.3,1.5,4.2,0.8,9.8c-0.3,1.6-0.4,3.1-0.3,4.7h-4.8
	c-0.4,0-0.7,0.3-0.7,0.7c0,0,0,0.1,0,0.1l1.1,9c0,0.4,0.4,0.7,0.7,0.7h8.9c0.4,0,0.7-0.3,0.7-0.7l1.1-9c0.1-0.4-0.2-0.8-0.7-0.8
	c0,0-0.1,0-0.1,0h-4.8c-0.1-3.5,0.5-6.1,1.5-7.1c0.2-0.2,0.5-0.5,0.8-0.7c0.3-0.2,0.4-0.7,0.2-1c-0.2-0.3-0.7-0.4-1-0.2l0,0
	c-0.3,0.2-0.5,0.4-0.8,0.7c0.1-2.3-0.3-4.6-1.2-6.8C16.8,23.3,16.3,23.1,15.9,23.3z M21.4,40.3l-0.9,7.5h-7.6L12,40.3H21.4z"/>
<path d="M5.1,30.8c0.9,0,1.7,0.3,2.5,0.7C7.8,31.6,8,31.8,8.3,32c1,0.9,2.2,1.5,3.4,1.7c0.2,0,0.4,0,0.6,0c1.1,0,2.2-0.3,3-1.1
	c0.9-0.8,1.2-2.2,0.5-3.3c-0.7-1.2-2-2-3.4-2.3c-3.9-0.9-7.7,2.2-7.8,2.3c-0.3,0.3-0.4,0.7-0.1,1.1C4.6,30.7,4.9,30.8,5.1,30.8
	L5.1,30.8z M12.1,28.6c1,0.1,1.9,0.7,2.4,1.6c0.3,0.5,0.2,1.1-0.2,1.4l0,0c-0.7,0.6-1.5,0.8-2.4,0.7c-1-0.2-1.9-0.7-2.6-1.4
	c-0.3-0.2-0.6-0.5-0.9-0.6c-0.4-0.2-0.8-0.4-1.3-0.6C8.5,28.7,10.3,28.3,12.1,28.6L12.1,28.6z"/>
<path d="M24.1,23.3c-1.8,0.5-3.2,1.7-4,3.4c-0.6,1.4-0.2,3.1,1.1,4c0.9,0.6,2,1,3.1,1c0.5,0,1-0.1,1.5-0.2c1.6-0.5,3.1-1.4,4.2-2.7
	c0.3-0.3,0.6-0.6,0.9-0.9c1-0.7,2.1-1.2,3.3-1.3c0.4-0.1,0.7-0.4,0.6-0.8c0-0.2-0.1-0.4-0.3-0.5C34.3,25,29,21.5,24.1,23.3z
	 M30,26.6c-0.4,0.3-0.7,0.6-1,1c-0.9,1.1-2.1,1.9-3.4,2.3c-1.2,0.3-2.5,0.1-3.5-0.5l0,0c-0.7-0.5-1-1.4-0.6-2.1
	c0.6-1.3,1.8-2.2,3.1-2.6c0.8-0.3,1.6-0.4,2.5-0.4c1.7,0.1,3.5,0.5,5,1.2C31.4,25.8,30.7,26.2,30,26.6z"/>
<path d="M22.4,27.4c-0.3,0.2-0.4,0.7-0.2,1c0.2,0.3,0.7,0.4,1,0.2l0,0c0.7-0.5,1.5-0.9,2.3-1.3c1-0.5,2-0.8,3-0.9
	c0.4,0,0.7-0.4,0.7-0.8c0-0.4-0.4-0.7-0.8-0.7c0,0,0,0,0,0c-1.2,0.2-2.4,0.5-3.5,1C24,26.4,23.2,26.9,22.4,27.4z"/>
<path d="M9.9,30.4c0.4,0,0.9,0.1,1.3,0.2c0.6,0.2,1.1,0.4,1.6,0.7c0.4,0.2,0.8,0.1,1-0.3c0,0,0,0,0,0c0.2-0.4,0.1-0.8-0.3-1
	c-0.6-0.3-1.3-0.6-1.9-0.8c-0.5-0.1-1-0.2-1.6-0.3c-0.4,0-0.8,0.3-0.8,0.7C9.1,29.9,9.4,30.3,9.9,30.4C9.9,30.4,9.9,30.4,9.9,30.4
	L9.9,30.4z"/>
<path d="M7.4,16c0.7,0.5,1.3,1.1,1.7,1.9c0.1,0.3,0.2,0.6,0.3,0.9c0.3,1.3,1,2.4,2,3.3c0.8,0.7,1.8,1,2.9,1.1c0.2,0,0.5,0,0.7-0.1
	c1.2-0.2,2.2-1.3,2.2-2.5c0-1.4-0.6-2.8-1.7-3.7c-2.8-2.9-7.6-2.2-7.8-2.2c-0.4,0.1-0.7,0.4-0.6,0.9C7.1,15.7,7.2,15.9,7.4,16
	L7.4,16z M14.5,17.9c0.8,0.6,1.2,1.6,1.2,2.6c0,0.5-0.4,1-1,1.1c-0.9,0.1-1.7-0.1-2.4-0.7c-0.7-0.7-1.2-1.6-1.5-2.6
	c-0.1-0.3-0.2-0.7-0.4-1c-0.2-0.4-0.5-0.8-0.8-1.2C11.5,16,13.2,16.7,14.5,17.9L14.5,17.9z"/>
<path d="M12.7,19.1c0.4,0.5,0.7,1,1,1.5c0.2,0.4,0.7,0.5,1,0.3c0.3-0.2,0.5-0.6,0.3-1c-0.3-0.6-0.8-1.2-1.2-1.8
	c-0.3-0.3-0.7-0.7-1-0.9c-0.3-0.3-0.8-0.2-1.1,0.1c-0.3,0.3-0.2,0.8,0.1,1.1C12.1,18.5,12.4,18.8,12.7,19.1z"/>
<path d="M24.3,18.7c0.1,0.4,0.5,0.6,0.9,0.5c0.1,0,0.2-0.1,0.3-0.2l1.2-1.1l5.8,1.2l0.2,0.2c0.4,0.5,0.9,0.8,1.5,0.9
	c0.1,0,0.2,0,0.2,0c0.5,0,1.1-0.2,1.5-0.6l6.9-6.2c0.9-0.8,1-2.2,0.2-3c0,0-0.1-0.1-0.1-0.1c0.8-1.2,1.1-3.1-1.1-6.2
	c-1.2-1.8-2.1-2.7-3.2-2.9c-0.9,0-1.7,0.3-2.3,1L35,3.5L34.4,3c-0.3-0.3-0.7-0.3-1,0l-7,6.3c-0.3,0.3-0.3,0.7-0.1,1l2.8,3.9
	l-2.6,0.2l-2.3-0.6c-0.4-0.1-0.8,0.1-0.9,0.5c0,0.1,0,0.3,0,0.4L24.3,18.7z M26.3,15.9c0.1,0,0.2,0,0.2,0l4-0.4
	c0.4,0,0.7-0.4,0.7-0.8c0-0.1-0.1-0.3-0.1-0.4L27.9,10l6-5.4L35.6,6c0.3,0.3,0.8,0.3,1.1-0.1c0.3-0.3,0.3-0.8-0.1-1.1c0,0,0,0,0,0
	l-0.5-0.4l1.2-1c0.5-0.4,0.9-0.6,1.1-0.6C39,2.9,39.8,3.9,40.6,5c0.9,1.4,1.8,3.1,1.2,4.4l-3.6-3.2c-0.3-0.3-0.8-0.2-1.1,0.1
	c-0.3,0.3-0.2,0.8,0.1,1l4.7,4.1c0.3,0.2,0.3,0.7,0.1,0.9c0,0,0,0-0.1,0.1l-6.9,6.2c-0.1,0.1-0.3,0.2-0.5,0.2
	c-0.2,0-0.4-0.1-0.5-0.3L33.6,18c-0.1-0.2-0.3-0.3-0.5-0.3l-6.5-1.3c-0.2,0-0.5,0-0.6,0.2l-0.6,0.5l-0.4-1.5L26.3,15.9z"/>
<path d="M22.6,18.8c0.4,0,0.8-0.3,0.8-0.8c0-0.4-0.3-0.8-0.8-0.8c-0.4,0-0.8,0.3-0.8,0.8c0,0,0,0,0,0C21.9,18.5,22.2,18.8,22.6,18.8
	z"/>
<path d="M20.9,20.4c0.4,0,0.8-0.3,0.8-0.8c0-0.4-0.3-0.8-0.8-0.8c-0.4,0-0.8,0.3-0.8,0.8c0,0,0,0,0,0C20.1,20.1,20.4,20.4,20.9,20.4
	z"/>
<path d="M19.7,22.5c0.4,0,0.8-0.3,0.8-0.8s-0.3-0.8-0.8-0.8s-0.8,0.3-0.8,0.8l0,0C18.9,22.1,19.3,22.5,19.7,22.5z"/>
</svg>
