<?xml version="1.0" encoding="utf-8"?>
<!-- Generator: Adobe Illustrator 22.0.1, SVG Export Plug-In . SVG Version: 6.00 Build 0)  -->
<svg version="1.1" id="Layer_1" xmlns="http://www.w3.org/2000/svg" xmlns:xlink="http://www.w3.org/1999/xlink" x="0px" y="0px"
	 viewBox="0 0 48 51.2" style="enable-background:new 0 0 48 51.2;" xml:space="preserve">
<title>24 jigsaw</title>
<path d="M19.4,32.5h-1c0.1-0.3,0.1-0.5,0.1-0.8c0-1.8-1.5-3.2-3.2-3.2S12,30,12,31.7c0,0.3,0,0.5,0.1,0.8h-4v-3.4
	c0.3,0.1,0.5,0.1,0.8,0.1c1.8,0,3.2-1.5,3.2-3.2s-1.5-3.2-3.2-3.2c-0.3,0-0.5,0-0.8,0.1v-3.9h5.2c0.4,0,0.8-0.3,0.7-0.8
	c0-0.2-0.1-0.3-0.2-0.5c-0.1-0.1-0.1-0.2-0.2-0.3c-0.1-0.2-0.2-0.5-0.2-0.8c0-0.8,0.6-1.6,1.4-1.7c0.2,0,0.5,0,0.7,0
	c0.8,0.2,1.4,0.9,1.4,1.7c0,0.4-0.1,0.8-0.4,1.1c0,0-0.1,0.1-0.1,0.1c0,0,0,0,0,0c0,0,0,0.1,0,0.1c0,0,0,0,0,0.1
	c0,0.4,0.3,0.8,0.7,0.8c0,0,0,0,0.1,0h4.6v3.9c-0.3-0.1-0.5-0.1-0.8-0.1c-1.8,0-3.2,1.5-3.2,3.3c0,1.7,1.3,3,2.9,3.2
	c0.4,0,0.8-0.3,0.8-0.7c0-0.4-0.3-0.8-0.7-0.8c-1-0.1-1.7-0.9-1.6-1.9c0.1-1,0.9-1.7,1.9-1.6c0.3,0,0.6,0.2,0.9,0.4
	c0.3,0.3,0.8,0.2,1.1-0.1c0.1-0.1,0.2-0.3,0.2-0.5v-5.1h5.2c0.4,0,0.8-0.3,0.8-0.7c0-0.2-0.1-0.3-0.2-0.5c-0.2-0.3-0.4-0.7-0.4-1.1
	c0-1,0.8-1.8,1.8-1.8c1,0,1.8,0.8,1.8,1.8l0,0c0,0.4-0.1,0.8-0.4,1.1c-0.3,0.3-0.2,0.8,0.1,1.1c0.1,0.1,0.3,0.2,0.5,0.2H38
	c0.4,0,0.8-0.3,0.8-0.8v-3.9c0-0.4-0.3-0.7-0.8-0.7c-0.2,0-0.3,0.1-0.5,0.2c-0.3,0.3-0.7,0.4-1.1,0.4c-1,0-1.8-0.8-1.8-1.8
	s0.8-1.8,1.8-1.8c0.4,0,0.8,0.1,1.1,0.4c0.3,0.3,0.8,0.2,1.1-0.1c0.1-0.1,0.2-0.3,0.2-0.5V6c0-0.4-0.3-0.8-0.8-0.8h-4.2
	c0.1-0.3,0.1-0.5,0.1-0.8c0-1.8-1.5-3.3-3.3-3.3s-3.3,1.5-3.3,3.3c0,0.3,0,0.5,0.1,0.8h-9c0.1-0.3,0.1-0.5,0.1-0.8
	c0-1.8-1.5-3.3-3.3-3.2c-1.8,0-3.2,1.5-3.2,3.2c0,0.3,0,0.5,0.1,0.8H7.3C6.9,5.3,6.6,5.6,6.6,6v3.1C6.3,9.1,6.1,9,5.8,9
	C4,9,2.5,10.5,2.5,12.3s1.5,3.3,3.3,3.3c0.3,0,0.6,0,0.8-0.1V24c0,0.4,0.3,0.8,0.8,0.7c0.2,0,0.3-0.1,0.5-0.2
	c0.3-0.2,0.7-0.4,1.1-0.4c1,0,1.8,0.8,1.8,1.8s-0.8,1.8-1.8,1.8c-0.4,0-0.8-0.1-1.1-0.4c-0.3-0.3-0.8-0.2-1.1,0.1
	c-0.1,0.1-0.2,0.3-0.2,0.5v5.3c0,0.4,0.3,0.8,0.8,0.8h6c0.4,0,0.8-0.3,0.7-0.8c0-0.2-0.1-0.3-0.2-0.5c-0.6-0.7-0.5-1.9,0.3-2.5
	c0.7-0.6,1.9-0.5,2.5,0.3c0.5,0.6,0.5,1.6,0,2.2c-0.3,0.3-0.2,0.8,0.1,1.1c0.1,0.1,0.3,0.2,0.5,0.2h2.2c0.4,0,0.8-0.3,0.8-0.8
	S19.8,32.6,19.4,32.5L19.4,32.5z M22.6,11.1c0.4,0,0.8-0.2,0.8-0.7c0,0,0-0.1,0-0.1V6.8h5.2c0.4,0,0.8-0.3,0.8-0.7
	c0-0.2-0.1-0.3-0.2-0.5c-0.2-0.3-0.4-0.7-0.4-1.1c0-1,0.8-1.8,1.8-1.8c1,0,1.8,0.8,1.8,1.8c0,0.4-0.1,0.8-0.4,1.1
	c-0.3,0.3-0.2,0.8,0.1,1.1c0.1,0.1,0.3,0.2,0.5,0.2h4.6v2.4C37,9.1,36.7,9,36.4,9c-1.8,0-3.3,1.5-3.3,3.3s1.5,3.3,3.3,3.3
	c0.3,0,0.6,0,0.8-0.1v1.9h-3.5c0.1-0.3,0.1-0.5,0.1-0.8c0-1.8-1.5-3.3-3.3-3.3s-3.3,1.5-3.3,3.3l0,0c0,0.3,0,0.5,0.1,0.8h-4v-3.1
	c0-0.4-0.3-0.7-0.8-0.7c0,0-0.1,0-0.1,0c-0.1,0-0.3,0.1-0.4,0.2c-0.3,0.3-0.7,0.4-1.1,0.4c-1,0-1.8-0.8-1.8-1.8s0.8-1.8,1.8-1.8
	c0.4,0,0.8,0.1,1.1,0.4C22.3,11,22.4,11.1,22.6,11.1z M7.7,13.6c-0.3-0.1-0.6-0.1-0.8,0.1c-0.3,0.3-0.7,0.4-1.1,0.4
	c-1,0-1.8-0.8-1.8-1.8s0.8-1.8,1.8-1.8c0.4,0,0.8,0.1,1.1,0.4c0.3,0.3,0.8,0.2,1.1-0.1c0.1-0.1,0.2-0.3,0.2-0.5V6.8h5.2
	C13.7,6.8,14,6.4,14,6c0-0.2-0.1-0.3-0.2-0.5c-0.2-0.3-0.4-0.7-0.4-1.1c0-1,0.8-1.8,1.8-1.7c0.9,0,1.7,0.8,1.7,1.7
	c0,0.4-0.1,0.8-0.4,1.1c-0.3,0.3-0.2,0.8,0.1,1.1c0.1,0.1,0.3,0.2,0.5,0.2h4.6v2.4C21.6,9.1,21.4,9,21.1,9l0,0
	c-1.8,0-3.3,1.5-3.3,3.3s1.5,3.3,3.3,3.3l0,0l0,0c0.3,0,0.5,0,0.8-0.1v1.9h-3.5c0.1-0.3,0.1-0.5,0.1-0.8l0,0c0-1.8-1.5-3.3-3.3-3.2
	c-1.8,0-3.2,1.5-3.2,3.2l0,0c0,0.3,0,0.5,0.1,0.8h-4v-3.1C8.1,14,7.9,13.7,7.7,13.6z"/>
<path d="M45.5,31.9c0-1.8-1.5-3.2-3.2-3.2c-0.3,0-0.5,0-0.8,0.1V24c0-0.4-0.3-0.8-0.8-0.8h-4.2c0.1-0.3,0.1-0.5,0.1-0.8
	c0-1.8-1.5-3.3-3.3-3.3s-3.3,1.5-3.3,3.3c0,0.3,0,0.5,0.1,0.8h-4.8c-0.4,0-0.8,0.3-0.8,0.8v4.7c-0.3-0.1-0.5-0.1-0.8-0.1
	c-1.8,0-3.2,1.5-3.2,3.2c0,1.8,1.5,3.3,3.2,3.3c0.3,0,0.5,0,0.8-0.1v4.1c0,0.4,0.3,0.8,0.8,0.8h5.1V41c0.1,1.6,0.7,3,1.8,4.2v3.2
	c0,0.4,0.3,0.8,0.8,0.8s0.8-0.3,0.8-0.8v-3.5c0-0.2-0.1-0.4-0.2-0.5c-0.9-0.9-1.4-2.1-1.6-3.3v-1.1h2.6c-0.4,0.9-0.6,2-0.4,3
	c0.1,0.3,0.4,0.6,0.7,0.6c0,0,0.1,0,0.1,0c0.4-0.1,0.7-0.5,0.6-0.9c0,0,0,0,0,0c-0.1-1.1,0.2-2.1,0.8-3l0,0c0.2-0.2,0.4-0.5,0.6-0.7
	c0.2-0.2,0.3-0.5,0.2-0.8c-0.6-1.5-1.1-3.2-1.4-4.8c0-0.4,0.3-0.8,0.6-1l3.6,7.2c0.2,0.4,0.6,0.5,1,0.3c0.3-0.1,0.4-0.4,0.4-0.7V35
	c0.1,0,0.2,0,0.3,0l0.6,1.2V40l-2.9,4.7c-0.1,0.1-0.1,0.3-0.1,0.4v3.3c0,0.4,0.3,0.8,0.8,0.8s0.8-0.3,0.8-0.8v-3.1l2.9-4.7
	c0.1-0.1,0.1-0.3,0.1-0.4v-4.1c0-0.1,0-0.2-0.1-0.3l-0.4-0.8C44.6,34.5,45.5,33.2,45.5,31.9z M42.3,33.6c-0.4,0-0.8-0.1-1.1-0.4
	c-0.3-0.3-0.8-0.2-1.1,0.1C40,33.5,40,33.7,40,33.9V36l-2.5-5.1c-0.2-0.3-0.6-0.5-0.9-0.4c-1.2,0.4-2.1,1.5-2.2,2.8
	c0.2,1.7,0.7,3.3,1.3,4.9c-0.1,0.1-0.1,0.1-0.2,0.2h-9.3v-4.6c0-0.4-0.3-0.7-0.8-0.7c-0.2,0-0.3,0.1-0.5,0.2
	c-0.3,0.2-0.7,0.4-1.1,0.4c-1,0-1.8-0.8-1.8-1.8s0.8-1.8,1.8-1.8c0.4,0,0.8,0.1,1.1,0.4c0.3,0.3,0.8,0.2,1.1-0.1
	c0.1-0.1,0.2-0.3,0.2-0.5v-5.1h5.2c0.4,0,0.8-0.3,0.8-0.7c0-0.2-0.1-0.3-0.2-0.5c-0.2-0.3-0.4-0.7-0.4-1.1c0-1,0.8-1.8,1.8-1.8
	s1.8,0.8,1.8,1.8c0,0.4-0.1,0.8-0.4,1.1c-0.3,0.3-0.2,0.8,0.1,1.1c0.1,0.1,0.3,0.2,0.5,0.2H40v5.1c0,0.4,0.3,0.8,0.7,0.8
	c0.2,0,0.3-0.1,0.5-0.2c0.3-0.2,0.7-0.4,1.1-0.4c1,0,1.8,0.8,1.8,1.8S43.2,33.6,42.3,33.6L42.3,33.6z"/>
</svg>
