<svg xmlns="http://www.w3.org/2000/svg" viewBox="0 0 48 60" x="0px" y="0px"><title>24 jigsaw</title><path d="M19.418,31.343h-.981a3.164,3.164,0,0,0,.1-.8,3.248,3.248,0,0,0-6.5,0,3.158,3.158,0,0,0,.1.8H8.093v-3.4a3.12,3.12,0,0,0,.766.094,3.248,3.248,0,1,0,0-6.5,3.168,3.168,0,0,0-.766.093V17.692h5.194a.751.751,0,0,0,.594-1.209,1.765,1.765,0,0,1-.16-.292,1.7,1.7,0,0,1-.216-.782,1.779,1.779,0,0,1,1.419-1.74,1.793,1.793,0,0,1,.715,0,1.781,1.781,0,0,1,1.419,1.74,1.763,1.763,0,0,1-.376,1.076.73.73,0,0,0-.08.141c-.006.014-.018.027-.023.041a.752.752,0,0,0-.034.14.6.6,0,0,0-.015.061.751.751,0,0,0,.746.824h4.638v3.946a3.17,3.17,0,0,0-.767-.093,3.248,3.248,0,0,0-.343,6.477.75.75,0,1,0,.156-1.492,1.747,1.747,0,1,1,1.246-3.116.75.75,0,0,0,1.208-.594V17.692h5.2a.75.75,0,0,0,.594-1.208,1.752,1.752,0,0,1-.375-1.075,1.776,1.776,0,1,1,3.552,0,1.752,1.752,0,0,1-.375,1.075.75.75,0,0,0,.594,1.208h5.387a.75.75,0,0,0,.75-.75V13.068a.75.75,0,0,0-1.217-.586,1.76,1.76,0,0,1-1.1.4,1.776,1.776,0,1,1,1.1-3.157.749.749,0,0,0,1.217-.586V4.81a.75.75,0,0,0-.75-.75h-4.2a3.159,3.159,0,0,0,.1-.784,3.276,3.276,0,1,0-6.552,0,3.159,3.159,0,0,0,.1.784H18.461a3.207,3.207,0,0,0,.1-.784,3.277,3.277,0,0,0-6.553,0,3.159,3.159,0,0,0,.1.784H7.342a.75.75,0,0,0-.75.75V7.932a3.149,3.149,0,0,0-.818-.106,3.276,3.276,0,0,0,0,6.552,3.154,3.154,0,0,0,.818-.106V22.82a.751.751,0,0,0,1.209.594,1.716,1.716,0,0,1,1.057-.369,1.748,1.748,0,1,1,0,3.5,1.715,1.715,0,0,1-1.057-.37.751.751,0,0,0-1.209.594v5.328a.75.75,0,0,0,.75.75h6a.751.751,0,0,0,.587-1.218,1.749,1.749,0,1,1,2.715,0,.751.751,0,0,0,.587,1.218h2.183a.75.75,0,1,0,0-1.5ZM22.581,9.879a.748.748,0,0,0,.836-.744V5.56h5.194a.75.75,0,0,0,.594-1.208,1.757,1.757,0,0,1-.375-1.076,1.776,1.776,0,1,1,3.552,0,1.757,1.757,0,0,1-.375,1.076A.75.75,0,0,0,32.6,5.56h4.637V7.932a3.141,3.141,0,0,0-.817-.106,3.276,3.276,0,1,0,0,6.552,3.147,3.147,0,0,0,.817-.106v1.92H33.785a3.151,3.151,0,0,0,.1-.783,3.276,3.276,0,1,0-6.552,0,3.151,3.151,0,0,0,.1.783h-4.01V13.068a.75.75,0,0,0-.835-.744.76.76,0,0,0-.386.157,1.759,1.759,0,0,1-1.1.4,1.776,1.776,0,0,1,0-3.552,1.755,1.755,0,0,1,1.1.4A.757.757,0,0,0,22.581,9.879ZM7.667,12.393a.751.751,0,0,0-.793.089,1.76,1.76,0,0,1-1.1.4,1.776,1.776,0,1,1,1.1-3.157.75.75,0,0,0,1.218-.586V5.56h5.194a.75.75,0,0,0,.594-1.208,1.757,1.757,0,0,1-.375-1.076,1.777,1.777,0,0,1,3.553,0,1.757,1.757,0,0,1-.375,1.076.75.75,0,0,0,.593,1.208h4.638V7.931a3.166,3.166,0,0,0-.814-.105h0a3.276,3.276,0,1,0,0,6.552h0a3.172,3.172,0,0,0,.814-.105v1.919H18.461a3.2,3.2,0,0,0,.1-.783h0a3.277,3.277,0,0,0-6.553,0h0a3.151,3.151,0,0,0,.1.783H8.092V13.068A.749.749,0,0,0,7.667,12.393Z"/><path d="M45.5,30.677a3.252,3.252,0,0,0-3.248-3.248,3.17,3.17,0,0,0-.767.093v-4.7a.75.75,0,0,0-.75-.75h-4.2a3.151,3.151,0,0,0,.1-.783,3.276,3.276,0,1,0-6.552,0,3.151,3.151,0,0,0,.1.783h-4.76a.75.75,0,0,0-.75.75v4.7a3.17,3.17,0,0,0-.767-.093,3.248,3.248,0,0,0,0,6.5,3.122,3.122,0,0,0,.767-.094v4.146a.75.75,0,0,0,.75.75h5.05v1.112a6.806,6.806,0,0,0,1.78,4.166V47.25a.75.75,0,0,0,1.5,0V43.712a.747.747,0,0,0-.222-.532,5.65,5.65,0,0,1-1.558-3.341V38.727h2.56a4.811,4.811,0,0,0-.415,2.957.751.751,0,0,0,.735.6.741.741,0,0,0,.147-.015.749.749,0,0,0,.589-.881,3.969,3.969,0,0,1,.846-2.957l.028-.039a5.586,5.586,0,0,1,.56-.668.749.749,0,0,0,.183-.809A22.329,22.329,0,0,1,35.854,32.1a1.324,1.324,0,0,1,.635-1.025l3.576,7.231a.75.75,0,0,0,1.422-.333V33.831c.087.022.179.019.268.033l.583,1.2v3.763l-2.9,4.706a.759.759,0,0,0-.111.394v3.323a.75.75,0,0,0,1.5,0v-3.11l2.9-4.706a.761.761,0,0,0,.111-.394V34.891a.765.765,0,0,0-.075-.329l-.41-.842A3.244,3.244,0,0,0,45.5,30.677Zm-3.248,1.748a1.73,1.73,0,0,1-1.059-.369.75.75,0,0,0-1.208.593v2.12l-2.5-5.052a.749.749,0,0,0-.929-.371,3.169,3.169,0,0,0-2.2,2.768,20.635,20.635,0,0,0,1.281,4.9c-.055.063-.114.134-.176.213H26.166V32.649a.75.75,0,0,0-1.207-.594,1.732,1.732,0,0,1-1.06.37,1.748,1.748,0,0,1,0-3.5,1.732,1.732,0,0,1,1.06.37.75.75,0,0,0,1.207-.595V23.576H31.36a.75.75,0,0,0,.594-1.208,1.752,1.752,0,0,1-.375-1.075,1.776,1.776,0,1,1,3.552,0,1.752,1.752,0,0,1-.375,1.075.75.75,0,0,0,.594,1.208h4.637V28.7A.75.75,0,0,0,41.2,29.3a1.73,1.73,0,0,1,1.059-.369,1.748,1.748,0,1,1,0,3.5Z"/></svg>