<svg xmlns="http://www.w3.org/2000/svg" xmlns:xlink="http://www.w3.org/1999/xlink" xml:space="preserve" version="1.1" style="shape-rendering:geometricPrecision;text-rendering:geometricPrecision;image-rendering:optimizeQuality;" viewBox="0 0 266 331.25" x="0px" y="0px" fill-rule="evenodd" clip-rule="evenodd"><defs><style type="text/css">
   
    .fil1 {fill:black}
    .fil0 {fill:black}
   
  </style></defs><g><path class="fil0" d="M0 228l36 0 0 -92c0,-11 9,-20 20,-20l133 0 42 -51 8 6 -38 45 13 0 36 112 16 0 0 24 -266 0 0 -24zm230 0l-32 -101 -142 0c-5,0 -9,4 -9,9l0 92 183 0z"/><path class="fil0" d="M47 254c0,6 -5,11 -11,11 -7,0 -12,-5 -12,-11l23 0z"/><path class="fil0" d="M242 254c0,6 -5,11 -11,11 -6,0 -11,-5 -12,-11l23 0z"/><circle class="fil1" transform="matrix(0.127973 0.0118696 -0.0118696 0.127973 129.086 22.3473)" r="174"/><path class="fil1" d="M146 129c5,4 8,8 9,12 4,15 -15,29 -24,40 -10,10 -25,-4 -16,-14 2,-2 13,-12 18,-17 1,-2 2,-3 0,-5 -5,-4 -10,-7 -15,-10 -14,28 -32,54 -48,82 -6,12 -24,2 -18,-10 15,-26 32,-51 46,-78l48 0z"/><path class="fil1" d="M113 49l27 2c5,0 9,5 9,11l-2 15c7,6 19,2 26,-1 4,-1 9,1 11,5 1,4 -1,9 -5,11 -15,5 -25,6 -33,3l-2 19c0,0 0,0 0,0l-47 0c0,-1 1,-3 1,-5l3 -36c-3,2 -8,4 -10,7 -2,3 0,9 3,22 1,4 -2,8 -6,9 -5,2 -9,-1 -10,-6 -9,-34 -8,-35 14,-46 3,-1 7,-3 12,-6 2,-3 6,-5 9,-4z"/></g></svg>