<?xml version="1.0" encoding="utf-8"?>
<!-- Generator: Adobe Illustrator 22.0.1, SVG Export Plug-In . SVG Version: 6.00 Build 0)  -->
<svg version="1.1" id="Layer_1" xmlns="http://www.w3.org/2000/svg" xmlns:xlink="http://www.w3.org/1999/xlink" x="0px" y="0px"
	 viewBox="0 0 48.6 51.6" style="enable-background:new 0 0 48.6 51.6;" xml:space="preserve">
<g>
	<path d="M14.6,5c-0.6,0-1,0.4-1,1v8c0,0.6,0.4,1,1,1s1-0.4,1-1V6C15.6,5.4,15.2,5,14.6,5z"/>
	<path d="M20.6,6v8c0,0.6,0.4,1,1,1s1-0.4,1-1V6c0-0.6-0.4-1-1-1S20.6,5.4,20.6,6z"/>
	<path d="M27.6,6v8c0,0.6,0.4,1,1,1s1-0.4,1-1V6c0-0.6-0.4-1-1-1S27.6,5.4,27.6,6z"/>
	<path d="M36.6,20.1V19c0-0.6-0.4-1-1-1h-26c-0.6,0-1,0.4-1,1v13c0,7.7,6.3,14,14,14c7.1,0,12.9-5.3,13.9-12.1
		c3.5-0.4,6.2-3.4,6.2-6.9C42.6,23.5,40,20.6,36.6,20.1z M22.6,44c-6.6,0-12-5.4-12-12V20h6v4h-1.4c-1.4,0-2.6,1.2-2.6,2.6v4.8
		c0,1.4,1.2,2.6,2.6,2.6H20c1.4,0,2.6-1.2,2.6-2.6v-4.8c0-1.4-1.2-2.6-2.6-2.6h-1.4v-4h16v12C34.6,38.6,29.3,44,22.6,44z M20,26
		c0.3,0,0.6,0.3,0.6,0.6v4.8c0,0.3-0.3,0.6-0.6,0.6h-4.8c-0.3,0-0.6-0.3-0.6-0.6v-4.8c0-0.3,0.3-0.6,0.6-0.6H20z M36.6,31.9v-9.8
		c2.3,0.5,4,2.5,4,4.9S38.9,31.4,36.6,31.9z"/>
</g>
</svg>
