<svg xmlns="http://www.w3.org/2000/svg" xmlns:xlink="http://www.w3.org/1999/xlink" version="1.1" x="0px" y="0px" viewBox="0 0 90 112.5" enable-background="new 0 0 90 90" xml:space="preserve"><path d="M56.527,21.426H31.426c-5.273,0-10.049,2.248-13.505,5.704s-5.594,8.286-5.594,13.56c0,1.168,0.105,2.338,0.306,3.448  c-2.879,1.267-4.89,4.158-4.89,7.507c0,4.521,3.665,8.192,8.186,8.192c2.341,0,4.452-0.979,5.944-2.556  c2.811,1.627,6.074,2.562,9.554,2.562h25.103c10.55,0,19.101-8.66,19.101-19.209C75.628,30.087,67.077,21.426,56.527,21.426z   M28.588,46.201c-3.014,0-5.458-2.443-5.458-5.458s2.444-5.457,5.458-5.457c3.013,0,5.457,2.443,5.457,5.457  S31.602,46.201,28.588,46.201z M43.868,46.201c-3.014,0-5.457-2.443-5.457-5.458s2.443-5.457,5.457-5.457  c3.013,0,5.457,2.443,5.457,5.457S46.881,46.201,43.868,46.201z M59.146,46.201c-3.013,0-5.457-2.443-5.457-5.458  s2.444-5.457,5.457-5.457c3.015,0,5.457,2.443,5.457,5.457S62.161,46.201,59.146,46.201z"/><circle cx="4.141" cy="59.735" r="4.093"/><path d="M89.46,68.574c0,0-2.396,0-3.069,0c-2.961,0-7.115-2.592-8.613-4.734c-1.045,1.037-2.437,1.885-4.01,2.572  c-2.297,1.201-4.867,1.947-7.593,2.123c-0.079,0.014-0.918,0.039-1.241,0.039H39.83c-6.714,0-11.396-2.086-16.001-6.392  c3.674,0.022,5.617,0.279,8.798,0.279H58.82c10.549,0,19.1-8.771,19.1-19.317c0-3.415,0.007-4.738-0.128-7.938  c4.158,4.085,6.24,7.662,6.24,14.323c0,0.801-0.05,1.563-0.146,2.34C84.195,65.635,89.46,68.574,89.46,68.574z"/></svg>