<?xml version="1.0" encoding="utf-8"?>
<!-- Generator: Adobe Illustrator 22.0.1, SVG Export Plug-In . SVG Version: 6.00 Build 0)  -->
<svg version="1.1" id="Layer_1" xmlns="http://www.w3.org/2000/svg" xmlns:xlink="http://www.w3.org/1999/xlink" x="0px" y="0px"
	 viewBox="0 0 54.3 54" style="enable-background:new 0 0 54.3 54;" xml:space="preserve">
<g>
	<path d="M47.9,13H34.3c-0.3-1.7-1.8-2.9-3.5-2.9h-0.1l4.2-6.5c0.5-0.7,0.3-1.6-0.4-2.1c-0.7-0.4-1.6-0.2-2.1,0.5L27,10.1h-2.1
		L19.5,2c-0.5-0.7-1.4-0.9-2.1-0.4S16.5,3,17,3.7l4.3,6.4h-0.1c-1.7,0-3.2,1.3-3.5,2.9H5.9c-1.7,0-3,1.3-3,3v27.6c0,1.7,1.3,3,3,3
		h3.3v2.7h6.6v-2.7H38v2.7h6.6v-2.7h3.3c1.7,0,3-1.3,3-3V16C50.9,14.3,49.6,13,47.9,13z M39.9,42.6h-33V17h33V42.6z M45.7,30.2
		c-1.2,0-2.2-1-2.2-2.2s1-2.2,2.2-2.2s2.2,1,2.2,2.2S46.9,30.2,45.7,30.2z M45.7,22.8c-1.2,0-2.2-1-2.2-2.2s1-2.2,2.2-2.2
		s2.2,1,2.2,2.2S46.9,22.8,45.7,22.8z"/>
</g>
</svg>
