<?xml version="1.0" encoding="utf-8"?>
<!-- Generator: Adobe Illustrator 22.0.1, SVG Export Plug-In . SVG Version: 6.00 Build 0)  -->
<svg version="1.1" id="Layer_1" xmlns="http://www.w3.org/2000/svg" xmlns:xlink="http://www.w3.org/1999/xlink" x="0px" y="0px"
	 viewBox="0 0 100 99" style="enable-background:new 0 0 100 99;" xml:space="preserve">
<g>
	<circle cx="55.6" cy="13.7" r="8.6"/>
	<path d="M77.3,49.1L66,41.5c-0.8-2.3-2.8-8.7-4.6-12.5c-1.9-4.1-6.1-4.9-11.5-6c-6-1.3-9.8,3.2-10.2,3.7c-0.1,0.1-0.1,0.1-0.2,0.2
		L21.9,48.8c-1.3,1.8-1,4.3,0.8,5.6c1.8,1.3,4.3,1,5.6-0.8l13.4-16.6L37.3,51l-3.4,21.8l-10.3,16c-1.2,1.9-0.5,4.4,1.3,5.6
		c1.9,1.2,4.3,0.6,5.5-1.2l10.9-16.6c0.2-0.4,0.4-0.8,0.5-1.2l3.3-15.4L58,73l3.5,18.7c0.4,1.9,2,3.2,3.9,3.2c0.2,0,0.5,0,0.7-0.1
		c2.2-0.4,3.6-2.5,3.2-4.7l-3.1-20c-0.1-0.8-0.5-1.5-1.1-2.1L51.3,52.9l4.2-17.4c1.7,4.4,3.3,9.7,3.3,9.7c0.3,0.7,0.7,1.4,1.3,1.8
		l12.3,8.3c0.7,0.6,1.6,0.8,2.4,0.8c1.2,0,2.4-0.5,3.2-1.6C79.4,52.9,79.1,50.4,77.3,49.1z"/>
</g>
</svg>
