<?xml version="1.0" encoding="utf-8"?>
<!-- Generator: Adobe Illustrator 22.0.1, SVG Export Plug-In . SVG Version: 6.00 Build 0)  -->
<svg version="1.1" id="Layer_1" xmlns="http://www.w3.org/2000/svg" xmlns:xlink="http://www.w3.org/1999/xlink" x="0px" y="0px"
	 viewBox="0 0 64 64.9" style="enable-background:new 0 0 64 64.9;" xml:space="preserve">
<title>baking-cookies-glove-oven</title>
<path d="M14,8c-3.3,0-6,2.7-6,6s2.7,6,6,6s6-2.7,6-6C20,10.7,17.3,8,14,8z M13,17h-2v-2h2V17z M14,12h-2v-2h2V12z M18,15h-2v-2h2V15
	z"/>
<path d="M14,26c-3.3,0-6,2.7-6,6s2.7,6,6,6s6-2.7,6-6C20,28.7,17.3,26,14,26z M12,32h-2v-2h2V32z M14,28h2v2h-2V28z M17,35h-2v-2h2
	V35z"/>
<path d="M32,8c-3.3,0-6,2.7-6,6s2.7,6,6,6s6-2.7,6-6C38,10.7,35.3,8,32,8z M31,18h-2v-2h2V18z M33,12h-2v-2h2V12z M36,16h-2v-2h2V16
	z"/>
<path d="M50,26c-1.7,0-3.3,0.7-4.5,2c1.9,0,3.8,0.4,5.5,1.3V28h2v2h-0.7c1.4,0.9,2.6,2.1,3.6,3.5c0.8-3.2-1.1-6.4-4.3-7.3
	C51,26.1,50.5,26,50,26z"/>
<path d="M37.8,30.7c-0.7-3.2-4-5.2-7.2-4.5c-3.2,0.7-5.2,4-4.5,7.2c0.6,2.7,3.1,4.6,5.8,4.6c0.4,0,0.9-0.1,1.3-0.2
	C33.9,35,35.5,32.5,37.8,30.7z M29,28h2v2h-2V28z M32,35h-2v-2h2V35z M35,32h-2v-2h2V32z"/>
<path d="M45.5,30C39.7,30,35,34.7,35,40.5V48c0,0.6-0.4,1-1,1c-0.3,0-0.5-0.1-0.7-0.3l-1.8-1.8c-1.3-1.3-3.3-1.2-4.6,0.1
	c-1.2,1.3-1.2,3.3,0,4.5l6.8,6.8c0.2,0.2,0.3,0.4,0.3,0.7v1h22V40.5C56,34.7,51.3,30,45.5,30z"/>
<path d="M57,4H7C5.3,4,4,5.3,4,7v32c0,1.7,1.3,3,3,3h26v-1.5c0-0.2,0-0.4,0-0.6c-4.4,0.6-8.4-2.5-9-6.9c-0.6-4.4,2.5-8.4,6.9-9
	c3.8-0.5,7.4,1.8,8.6,5.4c1.1-0.6,2.2-1,3.3-1.2c2-3.9,6.8-5.5,10.8-3.4s5.5,6.8,3.4,10.8c0,0.1-0.1,0.1-0.1,0.2
	c0.6,1.5,0.9,3.1,0.9,4.8v1.3c1.2-0.4,2-1.5,2-2.8V7C60,5.3,58.7,4,57,4z M14,40c-4.4,0-8-3.6-8-8s3.6-8,8-8s8,3.6,8,8
	C22,36.4,18.4,40,14,40z M14,22c-4.4,0-8-3.6-8-8s3.6-8,8-8s8,3.6,8,8C22,18.4,18.4,22,14,22z M32,22c-4.4,0-8-3.6-8-8s3.6-8,8-8
	s8,3.6,8,8C40,18.4,36.4,22,32,22z M50,22c-4.4,0-8-3.6-8-8s3.6-8,8-8s8,3.6,8,8C58,18.4,54.4,22,50,22z"/>
<path d="M50,8c-3.3,0-6,2.7-6,6s2.7,6,6,6s6-2.7,6-6C56,10.7,53.3,8,50,8z M48,16h-2v-2h2V16z M49,12v-2h2v2H49z M53,17h-2v-2h2V17z
	"/>
<path d="M8.4,48.4l0.5-1c0.2-0.5,0-1.1-0.4-1.3c-0.5-0.2-1.1,0-1.3,0.4l-0.5,1c-1.1,2.2-1.1,4.7,0,6.9c0.8,1.6,0.8,3.5,0,5.1l-0.5,1
	c-0.2,0.5,0,1.1,0.4,1.3s1.1,0,1.3-0.4l0,0l0.5-1c1.1-2.2,1.1-4.7,0-6.9C7.6,51.9,7.6,50.1,8.4,48.4z"/>
<path d="M20.4,48.4l0.5-1c0.2-0.5,0-1.1-0.4-1.3c-0.5-0.2-1.1,0-1.3,0.4l0,0l-0.5,1c-1.1,2.2-1.1,4.7,0,6.9c0.8,1.6,0.8,3.5,0,5.1
	l-0.5,1c-0.2,0.5,0,1.1,0.4,1.3c0.5,0.2,1.1,0,1.3-0.4l0,0l0.5-1c1.1-2.2,1.1-4.7,0-6.9C19.5,51.9,19.4,50,20.4,48.4z"/>
<path d="M14.4,48.4l0.5-1c0.2-0.5,0-1.1-0.4-1.3c-0.5-0.2-1.1,0-1.3,0.4l0,0l-0.5,1c-1.1,2.2-1.1,4.7,0,6.9c0.8,1.6,0.8,3.5,0,5.1
	l-0.5,1c-0.2,0.5,0,1.1,0.4,1.3c0.5,0.2,1.1,0,1.3-0.4l0,0l0.5-1c1.1-2.2,1.1-4.7,0-6.9C13.6,51.9,13.6,50.1,14.4,48.4z"/>
</svg>
