<?xml version="1.0" encoding="utf-8"?>
<!-- Generator: Adobe Illustrator 22.0.1, SVG Export Plug-In . SVG Version: 6.00 Build 0)  -->
<svg version="1.1" id="Layer_1" xmlns="http://www.w3.org/2000/svg" xmlns:xlink="http://www.w3.org/1999/xlink" x="0px" y="0px"
	 viewBox="0 0 64 63.1" style="enable-background:new 0 0 64 63.1;" xml:space="preserve">
<title>language, translate, translation, translator</title>
<g>
	<path d="M55.6,22.2H39.4V11.1c0-3.8-3.1-6.8-6.8-6.8H8.4c-3.8,0-6.8,3.1-6.8,6.8v15.2c0,1.3,0.4,2.7,1.2,3.8
		c2.4,4.6,13.5,11.5,13.6,11.5c0.2,0.1,0.5,0.2,0.8,0.2c0.8,0,1.5-0.7,1.5-1.5c0-0.2,0-0.4-0.1-0.6c-0.8-2.2-1.4-4.4-1.9-6.7h8v11.2
		c0,3.7,3,6.8,6.8,6.8h16c-0.4,2.3-1.1,4.5-1.9,6.7c-0.3,0.8,0,1.6,0.8,1.9c0.2,0.1,0.4,0.1,0.6,0.1c0.3,0,0.5-0.1,0.8-0.2
		c0.1-0.1,11.2-6.9,13.6-11.5c0.8-1.1,1.2-2.4,1.2-3.8V29.1C62.4,25.3,59.4,22.3,55.6,22.2z M21.5,30h-6.7c-0.4,0-0.9,0.2-1.1,0.5
		c-0.3,0.3-0.4,0.8-0.3,1.2c0,0.1,0.4,2.3,1,4.9c-3.4-2.3-7.8-5.7-9-8c0-0.1-0.1-0.2-0.2-0.3c-0.4-0.6-0.7-1.4-0.7-2.2V11.1
		c0-2.1,1.7-3.8,3.8-3.8c0,0,0,0,0,0h24.3c2.1,0,3.8,1.7,3.8,3.8v11.2h-5.1c-2,0-3.8,0.9-5.1,2.3c-1.1,0-2.1-0.3-3.1-0.7
		c1.6-2,2.5-4.4,2.8-6.9h0.8c0.8,0,1.5-0.7,1.5-1.5c0-0.8-0.7-1.5-1.5-1.5H22v-2.7c0-0.8-0.7-1.5-1.5-1.5S19,10.5,19,11.3V14h-4.7
		c-0.8,0-1.5,0.7-1.5,1.5c0,0.8,0.7,1.5,1.5,1.5h8.6c-0.2,1.9-1,3.7-2.2,5.2c-0.9-1-1.6-2.1-2-3.3c-0.3-0.8-1.2-1.2-1.9-0.9
		c-0.8,0.3-1.2,1.2-0.9,1.9c0.5,1.5,1.3,2.8,2.3,4c-1.2,0.5-2.5,0.7-3.9,0.7l0,0c-0.8,0-1.5,0.7-1.5,1.5s0.7,1.5,1.5,1.5l0,0
		c2.2,0,4.4-0.5,6.3-1.6c1.2,0.8,2.6,1.2,4,1.5c-0.1,0.5-0.2,1.1-0.2,1.6v1L21.5,30z M59.5,44.2c0,0.8-0.2,1.5-0.7,2.2
		c-0.1,0.1-0.1,0.2-0.2,0.3c-1.2,2.2-5.6,5.7-9,8c0.7-2.6,1-4.8,1-4.9c0.1-0.4-0.1-0.9-0.3-1.2C50,48.2,49.6,48,49.2,48H31.4
		c-2.1,0-3.8-1.7-3.8-3.8V29.1c0-2.1,1.7-3.8,3.8-3.8h24.3c2.1,0,3.8,1.7,3.8,3.8L59.5,44.2z M48.9,38.6L48.9,38.6l-4-10l0,0
		c0-0.1,0-0.1-0.1-0.2l-0.1-0.1c0,0-0.1-0.1-0.1-0.1l-0.1-0.1l-0.1-0.1L44.4,28c0,0-0.1,0-0.1-0.1l-0.2-0.1l0,0c0,0-0.1,0-0.1,0
		l-0.2,0h-0.2h-0.1h-0.2h-0.1l-0.2,0c0,0-0.1,0-0.1,0l0,0l-0.2,0.1L42.7,28c0,0-0.1,0.1-0.1,0.1l-0.1,0.1l-0.1,0.1
		c0,0-0.1,0.1-0.1,0.1v0.1l-0.1,0.2l0,0l-4,10l0,0l-2,5c-0.3,0.8,0,1.6,0.8,2c0,0,0,0,0.1,0c0.2,0.1,0.4,0.1,0.6,0.1
		c0.6,0,1.2-0.4,1.4-0.9l1.6-4.1h6l1.6,4.1c0.2,0.6,0.8,0.9,1.4,0.9c0.2,0,0.4,0,0.5-0.1c0.8-0.3,1.2-1.2,0.9-1.9c0,0,0,0,0-0.1
		L48.9,38.6z M41.8,37.7l1.8-4.5l1.8,4.5H41.8z"/>
</g>
</svg>
