<?xml version="1.0" encoding="utf-8"?>
<!-- Generator: Adobe Illustrator 22.0.1, SVG Export Plug-In . SVG Version: 6.00 Build 0)  -->
<svg version="1.1" id="Layer_1" xmlns="http://www.w3.org/2000/svg" xmlns:xlink="http://www.w3.org/1999/xlink" x="0px" y="0px"
	 viewBox="0 0 46.1 51.6" style="enable-background:new 0 0 46.1 51.6;" xml:space="preserve">
<title>16 yoga</title>
<path d="M4.5,40.4c0.5,0.3,1.1,0.5,1.6,0.5c0.2,0,0.4,0,0.6-0.1l0,0c-0.1,0.3-0.1,0.6-0.1,0.9c0,1,0.4,2,1.2,2.7
	c0.8,0.7,1.8,1.3,2.8,1.8c0,0,0,0.1,0,0.1c-0.1,0.4,0,0.8,0.3,1.2c0.8,1.2,1.6,2.2,3.3,2.2h0c1.6-0.3,3.3-0.7,4.8-1.2
	c0.2,0,0.3,0,0.5,0c3.3,0,8.9,0.2,9.8,0.2c1.3,0.4,2.7,0.8,4,1h0c1.7,0,2.5-1,3.3-2.2c0.3-0.4,0.4-1,0.2-1.4
	c-0.1-0.2-0.3-0.4-0.4-0.5c0.8-0.2,1.5-0.6,2.1-1c0.8-0.7,1.3-1.7,1.2-2.8c0-0.3-0.1-0.6-0.1-0.9l0,0c0.2,0.1,0.4,0.1,0.6,0.1
	c0.6,0,1.1-0.2,1.6-0.5c0.8-0.6,1.4-1.4,1.8-2.3c0.1-0.4-0.1-0.8-0.5-1c0,0-0.1,0-0.1,0l-1.3-0.3c-0.1-0.5-0.3-0.9-0.7-1.3
	c-0.7-0.4-1.6-0.4-2.3,0c-0.2,0.1-0.7,0.3-1.1,0.5l-3.6-3.7c-0.2-2-0.7-6.6-0.7-7.6c0-1.2-0.3-4.4-1.3-5.4c-0.7-0.7-3.6-1.6-5.4-2.1
	c2.2-0.2,3.9-2,3.9-4.2V8.8c0-4-3.3-7.2-7.3-7.1c-3.9,0-7.1,3.2-7.1,7.1V13c0,2.2,1.7,4,3.9,4.2c-1.9,0.5-4.8,1.4-5.4,2.1
	c-1,1-1.3,4.2-1.3,5.4c0,1-0.5,5.6-0.7,7.6L8.7,36c-0.4-0.2-0.9-0.4-1.1-0.5c-0.7-0.4-1.6-0.4-2.3,0c-0.4,0.3-0.7,0.8-0.7,1.3
	l-1.3,0.3c-0.4,0.1-0.7,0.5-0.6,0.9c0,0,0,0.1,0,0.1C3,39,3.6,39.8,4.5,40.4z M14.1,48.1c-0.8,0-1.2-0.3-1.9-1.2
	c1,0.4,2.1,0.7,3.1,1C15,47.9,14.5,48,14.1,48.1z M35.3,46.5c-0.8,1.2-1.2,1.5-2.1,1.5c-1.2-0.2-2.5-0.6-3.7-1c-0.1,0-0.1,0-0.2,0
	c-0.1,0-6.4-0.2-9.9-0.2c-2.5-0.1-4.9-0.7-7.2-1.6c0.3-0.5,0.7-1,1.2-1.4c1.3-0.8,2.7-1.4,4.2-1.8c1.1,0.3,2.1,0.7,3.1,1.2l0.8,0.4
	c3.3,1.7,5.9,2.9,6.9,3c1.9-0.1,3.8-0.3,5.7-0.5C34.6,46.2,35,46.3,35.3,46.5C35.3,46.5,35.3,46.5,35.3,46.5z M24.4,43.4
	c0.5-0.2,0.9-0.4,1.4-0.5c1-0.4,1.9-0.7,2.4-0.9c0.1,0,0.2-0.1,0.3-0.1c1.5,0.4,2.9,1,4.2,1.8c0.4,0.3,0.7,0.6,0.9,1l-0.2,0
	c-1.6,0.2-3.2,0.4-4.8,0.5C27.1,44.7,25.7,44.1,24.4,43.4z M32,28.7c0.2,2,0.4,3.9,0.4,4c0,0.2,0.1,0.3,0.2,0.4l4.2,4.3
	c0.2,0.2,0.6,0.3,0.9,0.2c0,0,1.3-0.6,1.5-0.7c0.6-0.3,0.8-0.2,0.9-0.1c0.1,0.2,0.2,0.4,0.2,0.6c0,0.4,0.2,0.7,0.6,0.7l0.9,0.2
	c-0.2,0.3-0.5,0.6-0.8,0.8c-0.3,0.2-0.7,0.3-1,0.2c-0.4-0.1-2.8-1.1-5.1-2.1c-1.5-0.9-2.9-2.1-4.1-3.5c-0.1-0.3-0.4-2.3-0.8-4.7
	L32,28.7z M33.1,37.9c-0.5,0-0.9,0-1.3,0.1c-1-0.8-1.9-1.7-2.8-2.6c0,0,0,0,0,0s0,0,0,0c-0.1-0.1-0.2-0.3-0.3-0.5
	c0-1.2,0.1-2.4,0.2-3.6c0.1,1,0.3,2.1,0.6,3.1C30.5,35.6,31.7,36.9,33.1,37.9L33.1,37.9z M17.4,13V8.8c0-3.2,2.6-5.7,5.8-5.6
	c3.1,0,5.6,2.5,5.6,5.6V13c0,1.5-1.2,2.7-2.7,2.7v-0.8c0.9-0.7,1.5-1.8,1.6-3v-1.8c0-0.8-0.3-1.6-0.9-2.1c-0.5-0.4-0.9-1-1.3-1.6
	l0,0c-0.1-0.3-0.4-0.6-0.7-0.6c-0.3,0-0.7,0.2-0.7,0.5c-0.3,0.8-0.9,1.5-1.7,1.8c-0.1,0.1-0.2,0.1-0.3,0.2c-0.4,0.2-0.5,0.6-0.3,1
	c0.2,0.4,0.6,0.5,1,0.3c0.1-0.1,0.2-0.1,0.4-0.2c0.7-0.4,1.3-0.9,1.7-1.5c0.3,0.3,0.6,0.7,0.9,1c0.3,0.3,0.4,0.7,0.4,1.1V12
	c0,1.4-2.4,3-3.1,3.2C22.4,15,20,13.4,20,12v-1.2c0.2,0,0.4-0.1,0.7-0.2c0.4-0.1,0.6-0.5,0.5-0.9c-0.1-0.4-0.5-0.6-0.9-0.5
	c0,0,0,0-0.1,0c-0.4,0.1-0.8,0.2-1.1,0.3c-0.4,0.1-0.6,0.4-0.6,0.7V12c0.1,1.2,0.7,2.2,1.6,3v0.8C18.6,15.7,17.4,14.5,17.4,13z
	 M25.2,18.4c0.2,0,0.4,0.1,0.5,0.1c-0.2,1.3-1.4,2.3-2.7,2.3c-1.3,0-2.5-0.9-2.7-2.3c0.3-0.1,0.5-0.1,0.8-0.2
	c0.3-0.1,0.6-0.4,0.5-0.8v-1.6c0.5,0.3,1,0.5,1.5,0.6c0.5-0.1,1.1-0.3,1.5-0.6v1.6C24.6,18,24.9,18.3,25.2,18.4L25.2,18.4z
	 M14.5,24.7c0-1.5,0.4-3.9,0.9-4.3c1.1-0.6,2.2-1,3.4-1.3c0.5,2.3,2.8,3.8,5.1,3.2c1.6-0.4,2.9-1.7,3.3-3.3c1.3,0.3,2.5,0.8,3.7,1.4
	c0.4,0.4,0.9,2.8,0.9,4.3c0,0.5,0.1,1.4,0.2,2.6l-2,0.3c-0.1-0.4-0.1-0.7-0.2-1.1c-0.1-0.4-0.4-0.7-0.8-0.6c-0.3,0-0.5,0.3-0.6,0.5
	c-0.7,2.8-1.1,5.6-1.1,8.4c0,0.3,0.1,0.5,0.2,0.7c-0.2,0.1-0.3,0.2-0.6,0.3c-0.4,0.2-0.5,0.6-0.3,1c0.2,0.4,0.6,0.5,1,0.3
	c0.3-0.2,0.5-0.3,0.8-0.4c0.5,0.5,0.9,1,1.4,1.4c-0.3,0-0.6,0.1-0.7,0.1c-0.4,0.1-0.7,0.4-0.6,0.9c0.1,0.4,0.4,0.7,0.8,0.6
	c2.7-0.4,6.9-0.7,8,0.1c0.6,0.4,1,1.1,1,1.8c0,0.6-0.2,1.2-0.7,1.5c-0.8,0.5-1.6,0.8-2.5,1c-0.4-0.7-0.9-1.3-1.5-1.8
	c-0.7-0.5-1.5-0.9-2.3-1.2l0.2,0c0.4,0,0.7-0.4,0.7-0.8s-0.4-0.7-0.8-0.7c0,0,0,0,0,0c-1.2,0.2-2.4,0.4-3.6,0.8
	c-0.6,0.2-1.5,0.5-2.5,0.9c-0.9,0.3-1.9,0.7-2.7,1l-0.3-0.2l-0.8-0.4c-2.1-0.9-4.3-1.6-6.6-2.1c-0.4-0.1-0.8,0.2-0.9,0.6
	c-0.1,0.4,0.2,0.8,0.6,0.9c0,0,0.2,0,0.4,0.1c-0.8,0.3-1.6,0.8-2.4,1.3c-0.7,0.5-1.2,1.2-1.6,1.9c-0.8-0.4-1.5-0.9-2.2-1.4
	c-0.5-0.4-0.7-0.9-0.7-1.5c0-0.7,0.4-1.4,1-1.8c1-0.7,5.3-0.5,8-0.1c0.4,0.1,0.8-0.2,0.9-0.6c0.1-0.4-0.2-0.8-0.6-0.9c0,0,0,0,0,0
	c-0.2,0-0.4-0.1-0.7-0.1c0.4-0.4,0.8-0.8,1.2-1.2c1.6,0.8,3.4,1.3,5.2,1.3c0.8,0,1.6-0.1,2.4-0.3c0.4-0.1,0.6-0.5,0.5-0.9
	c-0.1-0.4-0.5-0.6-0.9-0.5c0,0,0,0,0,0c-2.1,0.5-4.3,0.2-6.3-0.7c0.2-0.3,0.3-0.7,0.4-1c0-2.8-0.4-5.7-1.1-8.4
	c-0.1-0.4-0.5-0.6-0.9-0.5c-0.3,0.1-0.5,0.3-0.5,0.6c0,0.4-0.1,0.7-0.2,1.1l-2-0.3C14.5,26.1,14.6,25.1,14.5,24.7L14.5,24.7z
	 M13.1,37.9c1.4-1,2.7-2.2,3.7-3.6c0.2-1,0.4-2.1,0.6-3.1c0.2,1.2,0.2,2.4,0.2,3.6c-0.1,0.5-1.5,1.9-3.1,3.2
	C14.1,37.9,13.6,37.9,13.1,37.9L13.1,37.9z M5.4,38.1C5.7,38.1,6,37.8,6,37.4c0-0.2,0-0.4,0.1-0.6c0.1-0.1,0.2-0.2,0.9,0.1
	c0.3,0.1,1.5,0.7,1.5,0.7c0.3,0.1,0.6,0.1,0.9-0.2l4.2-4.3c0.1-0.1,0.2-0.3,0.2-0.4c0-0.1,0.2-2.1,0.4-4l1.9,0.3
	c-0.3,2.3-0.6,4.3-0.7,4.6c-1.2,1.4-2.5,2.6-4.1,3.6c-2.3,1-4.7,2-5.1,2.1c-0.3,0-0.7,0-1-0.2c-0.3-0.2-0.6-0.5-0.8-0.8L5.4,38.1z"
	/>
</svg>
