<?xml version="1.0" encoding="utf-8"?>
<!-- Generator: Adobe Illustrator 22.0.1, SVG Export Plug-In . SVG Version: 6.00 Build 0)  -->
<svg version="1.1" xmlns="http://www.w3.org/2000/svg" xmlns:xlink="http://www.w3.org/1999/xlink" x="0px" y="0px"
	 viewBox="0 0 93.7 103.9" style="enable-background:new 0 0 93.7 103.9;" xml:space="preserve">
<g id="Layer_2">
</g>
<g id="Layer_1">
	<g>
		<path d="M5269.8,2400.1v-2c0-2.8-5-4-9.7-4s-9.7,1.3-9.7,4v2c0,1.8,0.7,3.6,2,4.9l5,4.9c0.3,0.3,0.4,0.6,0.4,1v6.4
			c0,0.4,0.2,0.7,0.6,0.8l2.9,0.9c0.5,0.1,1-0.2,1-0.8v-7.2c0-0.4,0.2-0.7,0.4-1l5.1-5C5269.1,2403.7,5269.8,2401.9,5269.8,2400.1z
			 M5260.1,2400c-4.8,0-7.4-1.3-7.5-1.8l0,0c0.1-0.5,2.7-1.8,7.5-1.8s7.3,1.3,7.5,1.8C5267.4,2398.7,5264.9,2400,5260.1,2400z"/>
		<path d="M5265.1,2410.3c-0.6,0-1,0.4-1,1s0.4,1,1,1h4.3c0.6,0,1-0.4,1-1s-0.4-1-1-1H5265.1z"/>
		<path d="M5269.4,2413.7h-4.3c-0.6,0-1,0.4-1,1s0.4,1,1,1h4.3c0.6,0,1-0.4,1-1C5270.4,2414.1,5270,2413.7,5269.4,2413.7z"/>
		<path d="M5269.4,2417h-4.3c-0.6,0-1,0.4-1,1s0.4,1,1,1h4.3c0.6,0,1-0.4,1-1C5270.4,2417.5,5270,2417,5269.4,2417z"/>
	</g>
	<path d="M86.3,39.5H23.4c0-0.7-0.1-1.4-0.3-2.1l62-14.3c1.7-0.4,2.7-2,2.3-3.7L84.1,4.9c-0.2-0.8-0.7-1.5-1.4-1.9s-1.5-0.6-2.3-0.4
		L9.7,18.9c-1.7,0.4-2.7,2-2.3,3.6l2,8.6c-3.1,1.6-5.3,4.8-5.3,8.6c0,4.3,2.8,7.9,6.6,9.2v45.5c0,1.7,1.4,3.1,3.1,3.1h72.6
		c1.7,0,3.1-1.4,3.1-3.1V42.6C89.4,40.9,88,39.5,86.3,39.5z M48.3,45.7h8l-4.2,8.8h-8L48.3,45.7z M74.2,10.3l4.6-1.1l2,8.7l-8.7,2
		L74.2,10.3z M59.4,13.7l7.8-1.8l-2.1,9.6l-7.8,1.8L59.4,13.7z M44.6,17.1l7.8-1.8l-2.1,9.6l-7.8,1.8L44.6,17.1z M29.8,20.5l7.8-1.8
		l-2.1,9.6l-7.8,1.8L29.8,20.5z M22.8,22.2l-2.1,9.6L19.5,32c-1.2-0.9-2.6-1.5-4.1-1.8L14,24.1L22.8,22.2z M13.7,36.2
		c2,0,3.6,1.6,3.6,3.6s-1.6,3.6-3.6,3.6s-3.6-1.6-3.6-3.6S11.7,36.2,13.7,36.2z M21.8,54.5h-5V49c1.9-0.6,3.5-1.8,4.7-3.3h4.6
		L21.8,54.5z M36.9,54.5H29l4.2-8.8h8L36.9,54.5z M59.4,78.2l-13.6,8.3c-1.7,1-3.9-0.2-3.9-2.2V67.7c0-2,2.1-3.2,3.9-2.2l13.6,8.3
		C61,74.8,61,77.2,59.4,78.2z M67.3,54.5h-8l4.2-8.8h8L67.3,54.5z M83.3,54.5h-8.8l4.2-8.8h4.6C83.3,45.7,83.3,54.5,83.3,54.5z"/>
</g>
</svg>
