<?xml version="1.0" encoding="utf-8"?>
<!-- Generator: Adobe Illustrator 22.0.1, SVG Export Plug-In . SVG Version: 6.00 Build 0)  -->
<svg version="1.1"
	 id="Layer_1" xmlns:cc="http://creativecommons.org/ns#" xmlns:dc="http://purl.org/dc/elements/1.1/" xmlns:inkscape="http://www.inkscape.org/namespaces/inkscape" xmlns:rdf="http://www.w3.org/1999/02/22-rdf-syntax-ns#" xmlns:sodipodi="http://sodipodi.sourceforge.net/DTD/sodipodi-0.dtd" xmlns:svg="http://www.w3.org/2000/svg"
	 xmlns="http://www.w3.org/2000/svg" xmlns:xlink="http://www.w3.org/1999/xlink" x="0px" y="0px" viewBox="0 0 12.7 11.4"
	 style="enable-background:new 0 0 12.7 11.4;" xml:space="preserve">
<g transform="translate(0,-284.29998)">
	<path d="M9.3,285.1c-0.3,0-0.6,0.2-0.7,0.4c-0.4-0.2-1,0-1.2,0.4c0,0.1,0,0.1-0.1,0.2c-0.6,0.1-0.9,0.7-0.8,1.3
		c0.1,0.4,0.4,0.7,0.8,0.8c0.1,0.4,0.5,0.7,0.9,0.6c0.1,0,0.2,0,0.2-0.1c0.3,0.4,0.9,0.5,1.3,0.1c0,0,0,0,0.1-0.1
		c0.3,0.2,0.7,0.2,0.9-0.1c0,0,0.1-0.1,0.1-0.2c0.3,0.1,0.7-0.1,0.8-0.4c0-0.1,0-0.1,0-0.2c0.4-0.3,0.6-0.9,0.3-1.3
		c-0.1-0.2-0.4-0.4-0.7-0.4c-0.1-0.5-0.7-0.8-1.2-0.7c0,0-0.1,0-0.1,0C9.9,285.2,9.6,285.1,9.3,285.1L9.3,285.1z M7.8,286.5
		C7.8,286.5,7.8,286.5,7.8,286.5h0.7c0.1,0,0.1,0.1,0.1,0.1c0,0,0,0.1,0,0.1L8,287.5h0.5c0.1,0,0.1,0.1,0.1,0.1c0,0.1,0,0.1-0.1,0.1
		H7.9c-0.1,0-0.1-0.1-0.1-0.1c0,0,0-0.1,0-0.1l0.6-0.8H7.8c-0.1,0-0.1,0-0.1-0.1C7.7,286.6,7.7,286.5,7.8,286.5L7.8,286.5z
		 M9.1,286.5C9.1,286.5,9.1,286.5,9.1,286.5h0.7c0.1,0,0.1,0.1,0.1,0.1c0,0,0,0.1,0,0.1l-0.6,0.8h0.5c0.1,0,0.1,0.1,0.1,0.1
		c0,0.1,0,0.1-0.1,0.1H9.1c-0.1,0-0.1-0.1-0.1-0.1c0,0,0-0.1,0-0.1l0.6-0.8H9.1c-0.1,0-0.1,0-0.1-0.1C9,286.6,9,286.5,9.1,286.5
		L9.1,286.5z M10.3,286.5C10.3,286.5,10.3,286.5,10.3,286.5H11c0.1,0,0.1,0.1,0.1,0.1c0,0,0,0.1,0,0.1l-0.6,0.8h0.5
		c0.1,0,0.1,0.1,0.1,0.1c0,0.1,0,0.1-0.1,0.1h-0.7c-0.1,0-0.1-0.1-0.1-0.1c0,0,0-0.1,0-0.1l0.6-0.8h-0.5c-0.1,0-0.1,0-0.1-0.1
		C10.2,286.6,10.3,286.5,10.3,286.5L10.3,286.5z"/>
	<path d="M11.6,291.5c0-0.9-0.7-1.6-1.6-1.6c-0.9,0-1.6,0.7-1.6,1.6c0,0,0,0,0,0c0,0.9,0.7,1.6,1.6,1.6
		C10.9,293.1,11.6,292.4,11.6,291.5C11.6,291.5,11.6,291.5,11.6,291.5z"/>
	<path d="M10.4,293.3c-1,0.2-1.9-0.4-2.1-1.4c0-0.1,0-0.3,0-0.4c0-0.6-0.4-1.1-1-1.1c0,0,0,0,0,0H5.4c-0.1,0-0.2,0-0.3,0l-1.2-0.2
		C3,290,2.1,290.5,2,291.4C1.8,292,2,292.6,2.5,293c0.1,0.1,0.1,0.2,0,0.2c0,0-0.1,0.1-0.1,0.1H1.1c-0.3,0-0.6,0.3-0.6,0.6
		c0,0.3,0.3,0.6,0.6,0.6h2.1c0.7,0,1.2-0.5,1.2-1.2c0-0.3-0.1-0.5-0.2-0.7c0,0,0-0.1,0-0.1c0,0,0.1,0,0.1,0c0.2,0.3,0.3,0.7,0.3,1.1
		c0.8,0.3,1.7,0.4,2.5,0.2c0,0,0,0,0-0.1l-0.8-1c0,0,0-0.1,0-0.1c0,0,0.1,0,0.1,0l0.8,1c0.5,0.6,1.2,1,1.9,1h1.2
		c0.3,0,0.6-0.3,0.6-0.6s-0.3-0.6-0.6-0.6C10.5,293.2,10.4,293.2,10.4,293.3L10.4,293.3z"/>
</g>
</svg>
