<?xml version="1.0" encoding="utf-8"?>
<!-- Generator: Adobe Illustrator 22.0.1, SVG Export Plug-In . SVG Version: 6.00 Build 0)  -->
<svg version="1.1" id="Layer_1" xmlns="http://www.w3.org/2000/svg" xmlns:xlink="http://www.w3.org/1999/xlink" x="0px" y="0px"
	 viewBox="0 0 281.2 289.7" style="enable-background:new 0 0 281.2 289.7;" xml:space="preserve">
<g>
	<path d="M7.9,235.3h36v-92c0-11,9-20,20-20h133l42-51l8,6l-38,45h13l36,112h16v24H7.9V235.3z M237.9,235.3l-32-101h-142
		c-5,0-9,4-9,9v92H237.9z"/>
	<path d="M54.9,261.3c0,6-5,11-11,11c-7,0-12-5-12-11H54.9z"/>
	<path d="M249.9,261.3c0,6-5,11-11,11s-11-5-12-11H249.9z"/>
	<circle cx="137" cy="29.6" r="22.4"/>
	<path d="M153.9,136.3c5,4,8,8,9,12c4,15-15,29-24,40c-10,10-25-4-16-14c2-2,13-12,18-17c1-2,2-3,0-5c-5-4-10-7-15-10
		c-14,28-32,54-48,82c-6,12-24,2-18-10c15-26,32-51,46-78H153.9z"/>
	<path d="M120.9,56.3l27,2c5,0,9,5,9,11l-2,15c7,6,19,2,26-1c4-1,9,1,11,5c1,4-1,9-5,11c-15,5-25,6-33,3l-2,19l0,0h-47c0-1,1-3,1-5
		l3-36c-3,2-8,4-10,7s0,9,3,22c1,4-2,8-6,9c-5,2-9-1-10-6c-9-34-8-35,14-46c3-1,7-3,12-6C113.9,57.3,117.9,55.3,120.9,56.3z"/>
</g>
</svg>
