<?xml version="1.0" encoding="utf-8"?>
<!-- Generator: Adobe Illustrator 22.0.1, SVG Export Plug-In . SVG Version: 6.00 Build 0)  -->
<svg version="1.1" id="Layer_1" xmlns="http://www.w3.org/2000/svg" xmlns:xlink="http://www.w3.org/1999/xlink" x="0px" y="0px"
	 viewBox="0 0 98.5 68.7" style="enable-background:new 0 0 98.5 68.7;" xml:space="preserve">
<path d="M61.4,12.1H36.3c-5.3,0-10,2.2-13.5,5.7s-5.6,8.3-5.6,13.6c0,1.2,0.1,2.3,0.3,3.4c-2.9,1.3-4.9,4.2-4.9,7.5
	c0,4.5,3.7,8.2,8.2,8.2c2.3,0,4.5-1,5.9-2.6c2.8,1.6,6.1,2.6,9.6,2.6h25.1c10.5,0,19.1-8.7,19.1-19.2C80.5,20.8,71.9,12.1,61.4,12.1
	z M33.5,36.9c-3,0-5.5-2.4-5.5-5.5s2.4-5.5,5.5-5.5c3,0,5.5,2.4,5.5,5.5S36.5,36.9,33.5,36.9z M48.7,36.9c-3,0-5.5-2.4-5.5-5.5
	s2.4-5.5,5.5-5.5c3,0,5.5,2.4,5.5,5.5S51.8,36.9,48.7,36.9z M64,36.9c-3,0-5.5-2.4-5.5-5.5s2.4-5.5,5.5-5.5c3,0,5.5,2.4,5.5,5.5
	S67,36.9,64,36.9z"/>
<circle cx="9" cy="50.4" r="4.1"/>
<path d="M94.3,59.2c0,0-2.4,0-3.1,0c-3,0-7.1-2.6-8.6-4.7c-1,1-2.4,1.9-4,2.6c-2.3,1.2-4.9,1.9-7.6,2.1c-0.1,0-0.9,0-1.2,0H44.7
	c-6.7,0-11.4-2.1-16-6.4c3.7,0,5.6,0.3,8.8,0.3h26.2c10.5,0,19.1-8.8,19.1-19.3c0-3.4,0-4.7-0.1-7.9c4.2,4.1,6.2,7.7,6.2,14.3
	c0,0.8-0.1,1.6-0.1,2.3C89.1,56.3,94.3,59.2,94.3,59.2z"/>
</svg>
