<?xml version="1.0" encoding="utf-8"?>
<!-- Generator: Adobe Illustrator 22.0.1, SVG Export Plug-In . SVG Version: 6.00 Build 0)  -->
<svg version="1.1" id="Layer_1" xmlns="http://www.w3.org/2000/svg" xmlns:xlink="http://www.w3.org/1999/xlink" x="0px" y="0px"
	 viewBox="0 0 100 79.5" style="enable-background:new 0 0 100 79.5;" xml:space="preserve">
<circle cx="14" cy="19.3" r="2"/>
<circle cx="20" cy="19.3" r="2"/>
<circle cx="26" cy="19.3" r="2"/>
<g>
	<path d="M77.8,48.2c2.6,0,4.7,2.1,4.7,4.7s-2.1,4.7-4.7,4.7s-4.6-2.1-4.6-4.7C73.2,50.2,75.3,48.2,77.8,48.2z"/>
</g>
<g>
	<path d="M5,10.3V68h90V10.3H5z M18.5,63.9c0.2-5.5,2.9-10.8,6.9-14.6c0.9-0.9,2.4-1,3.4-0.3c2.1,1.4,4.6,2.2,7.4,2.2
		c2.7,0,5.3-0.9,7.4-2.2c1-0.7,2.6-0.5,3.4,0.3c3.8,3.8,6.5,9.3,6.7,14.6H18.5z M25.8,38c0-6,4.6-10.6,10.5-10.6
		c5.8,0,10.6,4.8,10.6,10.6S42,48.6,36.2,48.6S25.8,43.8,25.8,38z M54.8,46V35.2c0-0.3,0.2-0.5,0.5-0.5h19.4c0.3,0,0.5,0.2,0.5,0.5
		L75.3,46c0,0.2-0.2,0.5-0.5,0.5h-3.5v4.3l-3.8-4.3H55.3C55,46.5,54.8,46.2,54.8,46z M91,64c0,0-2.2,0-5.6,0
		c-0.1-2.2-1.2-4.5-2.9-6.2c-0.4-0.4-1-0.5-1.5-0.2c-0.9,0.6-2,1-3.2,1s-2.3-0.4-3.2-1c-0.4-0.3-1.1-0.2-1.5,0.2
		c-1.6,1.7-2.8,3.9-3,6.2h-5.6V47.5H67l5.2,5.9v-5.9h2.5c0.8,0,1.5-0.7,1.5-1.5v-2.5H91V64z M91,24.3H9v-10h82V24.3z"/>
</g>
</svg>
